<svg xmlns="http://www.w3.org/2000/svg" xmlns:xlink="http://www.w3.org/1999/xlink" viewBox="0 0 1920 960"><defs><style>.cls-1{fill:url(#Unbenannter_Verlauf_3);}.cls-2{fill:url(#Unbenannter_Verlauf_3-2);}.cls-10,.cls-11,.cls-3{fill:#230032;}.cls-4,.cls-5{fill:none;}.cls-10,.cls-11,.cls-4,.cls-5{stroke:#230032;stroke-miterlimit:10;}.cls-4{stroke-width:2.17px;}.cls-5{stroke-width:2.11px;}.cls-6{fill:url(#Unbenannter_Verlauf_6);}.cls-7{fill:url(#Unbenannter_Verlauf_3-3);}.cls-8{fill:url(#Unbenannter_Verlauf_3-4);}.cls-9{fill:url(#Unbenannter_Verlauf_3-5);}.cls-10{stroke-width:2px;}.cls-11{stroke-width:1.27px;}.cls-12{fill:url(#Unbenannter_Verlauf_3-6);}</style><linearGradient id="Unbenannter_Verlauf_3" x1="-733" y1="120" x2="469" y2="120" gradientTransform="translate(1451)" gradientUnits="userSpaceOnUse"><stop offset="0" stop-color="#230032"/><stop offset="1" stop-color="#230032" stop-opacity="0"/></linearGradient><linearGradient id="Unbenannter_Verlauf_3-2" x1="-1466" y1="360" x2="-486" y2="360" gradientTransform="translate(1466)" xlink:href="#Unbenannter_Verlauf_3"/><linearGradient id="Unbenannter_Verlauf_6" x1="512" y1="840" x2="1407" y2="840" gradientUnits="userSpaceOnUse"><stop offset="0" stop-color="#230032" stop-opacity="0"/><stop offset="1" stop-color="#230032"/></linearGradient><linearGradient id="Unbenannter_Verlauf_3-3" x1="1920.25" y1="600" x2="554.2" y2="600" gradientTransform="matrix(1, 0, 0, 1, 0, 0)" xlink:href="#Unbenannter_Verlauf_3"/><linearGradient id="Unbenannter_Verlauf_3-4" x1="1920.25" y1="540" x2="554.2" y2="540" gradientTransform="matrix(1, 0, 0, 1, 0, 0)" xlink:href="#Unbenannter_Verlauf_3"/><linearGradient id="Unbenannter_Verlauf_3-5" x1="1920.25" y1="660" x2="554.2" y2="660" gradientTransform="matrix(1, 0, 0, 1, 0, 0)" xlink:href="#Unbenannter_Verlauf_3"/><linearGradient id="Unbenannter_Verlauf_3-6" x1="0" y1="840" x2="632" y2="840" gradientTransform="matrix(1, 0, 0, 1, 0, 0)" xlink:href="#Unbenannter_Verlauf_3"/></defs><g id="Ebene_4" data-name="Ebene 4"><rect class="cls-1" x="718" width="1202" height="240" transform="translate(2638 240) rotate(180)"/><rect class="cls-2" y="240" width="980" height="240"/><path class="cls-3" d="M193,239.76H164.33l-40.89-80.61H73v80.61H47.17V31h80c35.38,0,63.51,31.32,63.51,64.09,0,25.52-16.82,50.17-40.89,59.74ZM73,133.63h54.23c20.88,0,37.7-17.69,37.7-38.57s-16.82-38.28-37.7-38.28H73Z"/><path class="cls-3" d="M280.62,216.85c24.36,0,36.83-16.53,39.15-24.36h27c-1.74,12.47-20.59,49-66.12,49-43.21,0-72.21-33.35-72.21-76.55,0-42.63,29.87-76.56,71-76.56,40.6,0,69.89,33.93,69.89,74.24,0,3.77-.29,7.54-.58,10.72h-114C237.41,198.58,253.36,216.85,280.62,216.85Zm-45.24-64.66h87.87c-3.77-22-19.43-39.15-43.79-39.15C255.68,113,239.73,129.57,235.38,152.19Z"/><path class="cls-3" d="M516.68,90.13V239.76H490.87V214.24c-11,16.82-28.71,27.26-52.2,27.26h-.29c-35.09,0-63.22-33.06-63.22-76.55,0-42.92,28.13-76.56,63.22-76.56h.29c23.49,0,41.18,10.44,52.2,27.26V90.13ZM490.87,165c0-28.71-17.69-51.33-43.5-51.33h-.29C418.37,113.62,401,135.37,401,165c0,30.15,17.69,51.32,46.11,51.32h.29C473.18,216.27,490.87,193.65,490.87,165Z"/><path class="cls-3" d="M693.87,239.76H668.06V215.4c-11.6,15.95-29.29,26.1-51,26.1-35.09,0-64.67-33.64-64.67-76.55S581.93,88.39,617,88.39c21.75,0,39.44,10.44,51,26.68V31h25.81ZM668.06,165c0-28.71-16.24-51-43.5-51s-46.4,22.33-46.4,51,19.14,51.32,46.4,51.32S668.06,193.65,668.06,165Z"/><path class="cls-3" d="M856.27,234.83c0,44.08-27,76.27-69.31,76.27-42.05,0-66.41-31.61-68.73-57.71h27c2,15.66,16.82,32.77,42,32.77,27.55,0,43.21-22,43.21-51.91V216.56c-11.6,15.95-28.42,24.94-48.14,24.94-29.87,0-51.62-27.26-51.62-60.6V90.13h25.81v89a36.94,36.94,0,0,0,36.83,37.11,37.38,37.38,0,0,0,37.12-37.11v-89h25.81Z"/><path class="cls-3" d="M607,450.18v24.36c-3.77,1.45-13.34,7-24.07,7-24.07,0-43.21-15.66-43.21-41.76V352.46H514.19V330.13h25.52V288.08h25.81v42.05H606.7v22.33H565.52v86.41c0,13.34,8.7,18,20,18C595.1,456.85,604.67,451.92,607,450.18Z"/><path class="cls-3" d="M623.52,405c0-42.34,30.74-76.56,71.92-76.56h.29c41.17,0,71.91,34.22,71.91,76.56S736.9,481.5,695.73,481.5h-.29C654.26,481.5,623.52,447.28,623.52,405Zm72.21,50.74c27,0,46.1-22.62,46.1-50.74,0-27.26-19.13-50.75-46.1-50.75h-.29c-27,.29-46.11,22.62-46.11,50.75s19.14,50.74,46.11,50.74Z"/><path class="cls-3" d="M904.81,450.47A31.11,31.11,0,0,0,925.69,458c18,0,28.42-9.57,28.42-21.46,0-12.17-8.41-17.39-27.26-21.74L910.61,411c-18.56-4.35-36.25-15.08-36.25-40.31,0-22.91,20.59-42.63,51.33-42.34,31.32.29,50.46,25.52,50.46,47.27H951.21a23,23,0,0,0-7.83-17.11,25.77,25.77,0,0,0-18-6.67c-15.08,0-25.52,7.83-25.52,18.56,0,10.44,6.38,15.66,19.43,18.56l17.4,3.77c29,6.38,42.92,22.33,42.92,43.49,0,25.23-20.3,45.24-53.94,45.24-36.25,0-54.81-27.84-54.81-50.46h24.36A25.31,25.31,0,0,0,904.81,450.47Z"/><path class="cls-3" d="M1133.61,479.76H1107.8v-23.2c-11.89,15.95-29.29,24.94-47.84,24.94-28.42,0-51.91-24.36-51.91-62.34v-89h25.81v89c0,20.29,16.52,37.11,36.82,37.11a37.38,37.38,0,0,0,37.12-37.11v-89h25.81Z"/><path class="cls-3" d="M1317.76,405c0,42.91-29.29,76.26-64.38,76.55h-.29c-21.75,0-39.44-10.15-51-26.1v24.36h-25.81V271h25.81v84.1c11.6-16.24,29.29-26.68,51-26.68h.29C1288.47,328.39,1317.76,362.32,1317.76,405ZM1292,405c0-28.71-18.56-51-46.11-51h-.29c-27.26,0-43.5,22.33-43.5,51s16.24,51.32,43.5,51.32h.29C1273.1,456,1292,433.65,1292,405Z"/><path class="cls-3" d="M1563.68,386.1v93.66h-25.81V388.13a34.51,34.51,0,1,0-69,0v91.63H1443V388.13c0-18.85-15.66-34.51-34.22-34.51a34.84,34.84,0,0,0-34.8,34.51v91.63h-25.81V330.13H1374V349a54.49,54.49,0,0,1,42.34-20.59,50.39,50.39,0,0,1,45.53,27.84l.87,2c9.28-17.69,27-29.87,47.85-29.87C1539,328.39,1563.68,352.17,1563.68,386.1Z"/><path class="cls-3" d="M1637.63,286.92a19.72,19.72,0,1,1-19.72-19.72A19.56,19.56,0,0,1,1637.63,286.92Zm-7.25,192.84h-25.81V330.13h25.81Z"/><path class="cls-3" d="M1751.31,450.18v24.36c-3.77,1.45-13.34,7-24.07,7-24.07,0-43.21-15.66-43.21-41.76V352.46h-25.52V330.13H1684V288.08h25.81v42.05H1751v22.33h-41.18v86.41c0,13.34,8.7,18,20,18C1739.42,456.85,1749,451.92,1751.31,450.18Z"/><path class="cls-3" d="M1767.55,333.9c0-10.44,2-21.75,5.8-29.87,9-20.88,29-34.8,55.39-34.8,36,0,60.61,23.49,60.61,51,0,21.46-8.41,32.19-32.77,51.33-10.73,8.7-18,20.88-18.85,32.48a54.37,54.37,0,0,0,.29,6.09h-24.65c-.29-2.9-.29-6.09-.29-9.57-.29-16.82,7.83-32.48,26.1-46.69,17.69-13.34,24.36-20,24.36-33.64,0-11.6-10.44-25.81-34.8-25.81-23.78,0-34.8,16.82-36,39.44Zm58.87,147.6a20.74,20.74,0,1,0-20.59-20.59A20.48,20.48,0,0,0,1826.42,481.5Z"/><rect class="cls-4" x="935" y="480" width="953" height="240" rx="120"/><path class="cls-3" d="M1073.15,645.26c0-42.34,30.74-76.56,71.92-76.56h.29c41.18,0,71.92,34.22,71.92,76.56s-30.74,76.56-71.92,76.56h-.29C1103.89,721.82,1073.15,687.6,1073.15,645.26ZM1145.36,696c27,0,46.11-22.62,46.11-50.75,0-27.26-19.14-50.75-46.11-50.75h-.29c-27,.29-46.11,22.62-46.11,50.75S1118.1,696,1145.07,696Z"/><path class="cls-3" d="M1371,720.08H1245.41V570.44h25.81v125h36.83c20.59,0,37.12.29,37.12,0v-125H1371Z"/><path class="cls-3" d="M1447.53,527.23a19.72,19.72,0,1,1-19.72-19.71A19.74,19.74,0,0,1,1447.53,527.23Zm-7.25,192.85h-25.81V570.44h25.81Z"/><path class="cls-3" d="M1518.58,527.23a19.72,19.72,0,1,1-19.72-19.71A19.74,19.74,0,0,1,1518.58,527.23Zm-7.25,192.85h-25.81V570.44h25.81Z"/><path class="cls-3" d="M1589.63,527.23a19.72,19.72,0,1,1-19.72-19.71A19.74,19.74,0,0,1,1589.63,527.23Zm-7.25,192.85h-25.81V570.44h25.81Z"/><path class="cls-3" d="M1660.67,527.23A19.72,19.72,0,1,1,1641,507.52,19.74,19.74,0,0,1,1660.67,527.23Zm-7.25,192.85h-25.81V570.44h25.81Z"/><path class="cls-3" d="M1692.86,701.23a20.59,20.59,0,1,1,20.59,20.59A20.67,20.67,0,0,1,1692.86,701.23ZM1723,647.58h-19.43l-6.09-136.29h31.9Z"/><rect class="cls-5" x="33" y="480" width="902" height="240" rx="120"/><path class="cls-3" d="M210,781H150.29V758.07h34.22V570.44H210Zm7.25-253.75a19.72,19.72,0,1,1-19.72-19.71A19.74,19.74,0,0,1,217.28,527.23Z"/><path class="cls-3" d="M386.92,570.44V720.08h-25.8V694.56c-11,16.82-28.71,27.26-52.2,27.26h-.29c-35.09,0-63.22-33.06-63.22-76.56,0-42.92,28.13-76.56,63.22-76.56h.29c23.49,0,41.18,10.44,52.2,27.26V570.44Zm-25.8,74.82c0-28.71-17.69-51.33-43.5-51.33h-.29c-28.71,0-46.11,21.75-46.11,51.33,0,30.16,17.69,51.33,46.11,51.33h.29C343.43,696.59,361.12,674,361.12,645.26Z"/><path class="cls-3" d="M561.21,570.44V720.08H535.4V694.56c-11,16.82-28.71,27.26-52.2,27.26h-.29c-35.08,0-63.21-33.06-63.21-76.56,0-42.92,28.13-76.56,63.21-76.56h.29c23.49,0,41.18,10.44,52.2,27.26V570.44ZM535.4,645.26c0-28.71-17.69-51.33-43.5-51.33h-.29c-28.7,0-46.1,21.75-46.1,51.33,0,30.16,17.69,51.33,46.1,51.33h.29C517.71,696.59,535.4,674,535.4,645.26Z"/><path class="cls-3" d="M735.5,570.44V720.08H709.69V694.56c-11,16.82-28.71,27.26-52.2,27.26h-.29c-35.09,0-63.22-33.06-63.22-76.56,0-42.92,28.13-76.56,63.22-76.56h.29c23.49,0,41.18,10.44,52.2,27.26V570.44Zm-25.81,74.82c0-28.71-17.69-51.33-43.5-51.33h-.29c-28.71,0-46.11,21.75-46.11,51.33,0,30.16,17.69,51.33,46.11,51.33h.29C692,696.59,709.69,674,709.69,645.26Z"/><path class="cls-3" d="M772.33,701.23a20.59,20.59,0,1,1,20.59,20.59A20.67,20.67,0,0,1,772.33,701.23Zm30.16-53.65H783.06L777,511.29h31.9Z"/><path class="cls-3" d="M688,932.53c8.12,4.06,17.69,7.54,28.13,7.54,18.56,0,28.42-12.18,28.42-23.78,0-11.89-8.41-17.69-27-21.75l-16.24-3.77c-18.56-4.35-36.83-14.5-36.83-38.57,0-23.2,18.85-45,51.62-45,23.2,0,40.89,12.18,48.14,17.4v28.13a83.48,83.48,0,0,0-21.46-15.08c-8.12-4.06-16.82-7-25.52-7-14.79,0-26.1,7-26.1,19.72,0,9,6.09,15.66,19.14,18.27l17.4,3.77c28.71,6.38,42.92,22,42.92,43.21,0,23.78-20,47.56-53.94,47.56-30.16,0-46.11-13.92-49-16.53l.58-29A82.27,82.27,0,0,0,688,932.53Z"/><path class="cls-3" d="M821.13,793H794.46L762,751.29h35.67Zm.58,167h-25.8V810.44h25.8Z"/><path class="cls-3" d="M878.55,793H851.87l-32.48-41.75h35.67Zm.58,167H853.32V810.44h25.81Z"/><path class="cls-3" d="M936,793H909.29l-32.48-41.75h35.67Zm.58,167H910.74V810.44h25.81Z"/><path class="cls-3" d="M993.39,793H966.71l-32.48-41.75H969.9Zm.58,167H968.16V810.44H994Z"/><path class="cls-3" d="M1050.81,793h-26.68l-32.48-41.75h35.67Zm.58,167h-25.81V810.44h25.81Z"/><path class="cls-3" d="M1108.22,793h-26.68l-32.47-41.75h35.66Zm.58,167H1083V810.44h25.81Z"/><path class="cls-3" d="M1165.64,793H1139l-32.48-41.75h35.67Zm.58,167h-25.81V810.44h25.81Z"/><path class="cls-6" d="M1287,720H632A120,120,0,0,0,512,840h0A120,120,0,0,0,632,960h578.61a20.66,20.66,0,0,1-12.2-18.77A20.59,20.59,0,1,1,1227.48,960H1287a120,120,0,0,0,120-120h0A120,120,0,0,0,1287,720Zm-58.43,167.58h-19.43l-6.09-136.29H1235Z"/><path class="cls-7" d="M1768,480a120,120,0,0,1,120,120h0a120,120,0,0,1-120,120h152V480Z"/><path class="cls-8" d="M935,600a120,120,0,0,1,120-120H815A120,120,0,0,1,935,600Z"/><path class="cls-9" d="M935,600A120,120,0,0,1,815,720h240A120,120,0,0,1,935,600Z"/><line class="cls-10" x1="1920" y1="239.95" y2="239.95"/><line class="cls-10" x1="696" y1="480" y2="480"/><line class="cls-11" x1="1920" y1="720" x2="1145" y2="720"/><path class="cls-12" d="M512,840h0A120,120,0,0,1,632,720H0V960H632A120,120,0,0,1,512,840Z"/></g></svg>