<?xml version="1.0" encoding="utf-8"?>
<!-- Generator: Adobe Illustrator 27.3.1, SVG Export Plug-In . SVG Version: 6.00 Build 0)  -->
<svg version="1.1" xmlns="http://www.w3.org/2000/svg" xmlns:xlink="http://www.w3.org/1999/xlink" x="0px" y="0px"
	 viewBox="0 0 1920 960" style="enable-background:new 0 0 1920 960;" xml:space="preserve">
<style type="text/css">
	.st0{fill:url(#SVGID_1_);}
	.st1{fill:#230032;}
	.st2{fill:none;}
	.st3{fill:url(#SVGID_00000052803394389627598790000016629674725476416903_);}
	.st4{fill:url(#SVGID_00000033371411320369547190000002526770869178669736_);}
	.st5{fill:url(#SVGID_00000059268639519305168930000004804133704058542976_);}
	.st6{fill:url(#SVGID_00000056428837585110587480000003624505553689623471_);}
	.st7{fill:url(#SVGID_00000109031102723755780920000013379650535581651848_);}
	.st8{fill:url(#SVGID_00000042000607612458544090000010894874778703337147_);}
</style>
<g id="Ebene_8_Kopie">
</g>
<g id="Path">
	<linearGradient id="SVGID_1_" gradientUnits="userSpaceOnUse" x1="174.9048" y1="809.5688" x2="1259.1846" y2="809.5688">
		<stop  offset="0" style="stop-color:#230032"/>
		<stop  offset="1" style="stop-color:#230032;stop-opacity:0"/>
	</linearGradient>
	<polygon class="st0" points="1242.4,654.4 397.6,715.2 174.9,768.2 189,964.7 1259.2,887.8 	"/>
	<g>
		<path class="st1" d="M312.2,931.6c22.9-1.6,33.5-18,35.1-25.5l25.3-1.8c-0.8,11.8-16,47.4-58.8,50.5c-40.6,2.9-70.1-26.4-73-67
			c-2.9-40,22.9-73.9,61.5-76.7c38.1-2.7,67.9,27.1,70.6,65c0.3,3.5,0.2,7.1,0.2,10.1l-107,7.7C270.4,917.4,286.6,933.5,312.2,931.6
			z M265.4,874l82.5-5.9c-5-20.4-20.9-35.4-43.8-33.8C281.8,835.8,267.9,852.4,265.4,874z"/>
		<path class="st1" d="M530,937.6l-24.2,1.7l-1.6-22.9c-9.8,15.8-25.7,26.5-46.2,28c-32.9,2.4-63-27.2-65.9-67.5
			c-2.9-40.3,22.6-73.9,55.6-76.3c20.4-1.5,37.7,7.1,49.7,21.6l-5.7-79l24.2-1.7L530,937.6z M500.7,869.1c-1.9-27-18.7-46.8-44.3-45
			c-25.6,1.8-42.1,24.1-40.1,51.1c1.9,27,21.4,46.9,47,45.1C488.9,918.4,502.6,896,500.7,869.1z"/>
		<path class="st1" d="M585.8,751.6c0.7,10.3-6.8,19.1-17.2,19.8c-10.3,0.7-19.1-6.8-19.8-17.2c-0.7-10.3,6.8-19.1,17.2-19.8
			C576.3,733.6,585.1,741.2,585.8,751.6z M592,933.1l-24.2,1.7l-10.1-140.5l24.2-1.7L592,933.1z"/>
		<path class="st1" d="M700.9,897.4l1.6,22.9c-3.4,1.6-12.1,7.4-22.1,8.2c-22.6,1.6-41.6-11.8-43.4-36.3l-5.9-82l-24,1.7l-1.5-21
			l24-1.7l-2.8-39.5L651,748l2.8,39.5l38.7-2.8l1.5,21l-38.7,2.8l5.8,81.1c0.9,12.5,9.4,16.3,20,15.5
			C690.1,904.4,698.8,899.2,700.9,897.4z"/>
		<path class="st1" d="M745.7,740.1c0.7,10.3-6.8,19.1-17.2,19.8c-10.3,0.7-19.1-6.8-19.8-17.2c-0.7-10.3,6.8-19.1,17.2-19.8
			C736.2,722.1,744.9,729.7,745.7,740.1z M751.9,921.6l-24.2,1.7l-10.1-140.5l24.2-1.7L751.9,921.6z"/>
		<path class="st1" d="M776.5,849.2c-2.9-39.8,23.7-74,62.4-76.7l0.3,0c38.7-2.8,69.8,27.3,72.7,67c2.9,39.8-23.7,74-62.4,76.7
			l-0.3,0C810.5,919,779.4,889,776.5,849.2z M847.7,892c25.3-1.8,41.8-24.4,39.9-50.8c-1.8-25.6-21.4-46.4-46.7-44.5l-0.3,0
			c-25.3,2.1-41.8,24.4-39.9,50.8s21.4,46.4,46.7,44.5L847.7,892z"/>
		<path class="st1" d="M1054.6,815.3l6.1,84.1l-24.2,1.7l-6-83.6c-1.4-19.1-18-33.7-37.1-32.4c-19.3,1.4-33.7,18.6-32.3,37.4l6,83.6
			l-24.2,1.7l-10.1-140.5l24.2-1.7l1.6,21.8c9.8-15.8,26.1-25.4,43.5-26.7C1028.6,758.8,1052.2,781.2,1054.6,815.3z"/>
	</g>
	<g>
		<g>
			<path class="st2" d="M-146.5,722.3c7.1,29.9,25.4,55.2,51.6,71.3s57,21,86.9,13.9l429.6-102.2c61.7-14.7,99.9-76.8,85.2-138.5
				c-7-29.6-25-53.8-48.6-69.3l-139-4.2l-380.4,90.5C-122.9,598.6-161.2,660.7-146.5,722.3z"/>
			<path class="st1" d="M506.8,566.9c14.7,61.7-23.6,123.8-85.2,138.5L-8,807.6c-29.9,7.1-60.7,2.2-86.9-13.9s-44.5-41.4-51.6-71.3
				c-14.7-61.7,23.6-123.8,85.2-138.5l380.4-90.5l-15.3-0.5l-366,87.1c-63.8,15.2-103.4,79.5-88.2,143.3
				c13,54.6,61.9,91.4,115.7,91.4c9.1,0,18.3-1.1,27.5-3.2l429.6-102.2c63.8-15.2,103.4-79.5,88.2-143.3
				c-6.8-28.4-23.3-52.1-45.2-68.2l-7.3-0.2C481.8,513.1,499.7,537.3,506.8,566.9z"/>
		</g>
	</g>
	<g>
		<g>
			<g>
				<path class="st1" d="M32.9,801.5l-46.4-195.1l27.5-6.5l27.7,116.5c16.2-28.4,42.8-74.8,43.3-75.6l0.4-0.7l36.5-8.7l-2.4,4.1
					c-6.2,10.3-18.7,32-38.3,66.3l66.1,58.9l11.8,10.8l-32.3,7.7L67.2,726c-2.3,4.1-4.6,8.1-6.6,11.7c-3.9,7-7.4,13.1-9.8,17.2
					l9.5,39.9L32.9,801.5z M-8.8,609.3l44.6,187.3l19.7-4.7l-8.9-37.6l0.4-0.7c2.4-4.1,6-10.5,10.1-17.9c2.4-4.3,5-8.9,7.8-13.9
					l1.2-2.2l61.6,55l22.9-5.5l-6.2-5.7l-68.5-61.1l0.8-1.4c17.8-31.1,29.9-52,36.8-63.7L88,643.5c-3.6,6.3-30.1,52.3-45.4,79.2
					l-2.5,4.4L11,604.6L-8.8,609.3z"/>
			</g>
			<g>
				<path class="st1" d="M169.6,768.9l-46.4-195.1l27.5-6.6l46.4,195.1L169.6,768.9z M128,576.8l44.6,187.3l19.7-4.7l-44.6-187.3
					L128,576.8z"/>
			</g>
			<g>
				<path class="st1" d="M266.8,746c-29.1,0-56.1-23.9-64.6-59.3c-4.6-19.4-2.8-39,5.2-55.2c8-16.2,21.3-27.3,37.5-31.1l0.3-0.1
					c19.1-4.5,36.5-1.1,50.8,10l-4.6-19.3l27.5-6.6l33.5,140.9l-27.5,6.5l-4.6-19.3c-7.8,16.3-21.8,27.3-40.9,31.8l-0.3,0.1
					C275.1,745.5,270.9,746,266.8,746z M261.1,602.4c-4.8,0-9.8,0.6-14.9,1.8l-0.3,0.1c-15,3.6-27.4,13.9-34.8,29
					c-7.6,15.3-9.3,34-4.9,52.5c9.1,38.2,40.8,62.3,72.2,54.9l0.3-0.1c19.9-4.7,33.9-16.9,40.4-35.1l2.3-6.3l6.6,27.9l19.7-4.7
					L316,589.3l-19.7,4.7l6.6,27.9l-4.9-4.6C287.6,607.4,275,602.4,261.1,602.4z M270.2,720.9c-21.3,0-38.4-14.9-44.3-39.8
					c-7-29.3,6.1-53.2,32.5-59.5l0.3-0.1c11.9-2.8,23.8-0.3,33.7,7.1c9.5,7.2,16.6,18.5,19.7,31.9l0,0c3.2,13.4,2,26.6-3.3,37.3
					c-5.5,11.1-15,18.7-26.9,21.6l-0.3,0.1C277.8,720.4,273.9,720.9,270.2,720.9z M268.1,624.4c-2.8,0-5.7,0.3-8.5,1l-0.3,0.1
					c-24.1,5.7-36,27.7-29.6,54.6c5.5,23.2,20.8,36.8,40.2,36.8c3.5,0,7.1-0.4,10.8-1.3l0.3-0.1c10.7-2.5,19.3-9.4,24.2-19.4
					c4.9-9.9,5.9-22.2,3-34.6l0,0c-3-12.4-9.4-23-18.3-29.6C283.5,627,275.9,624.4,268.1,624.4z"/>
			</g>
			<g>
				<path class="st1" d="M384.5,717.8l-33.5-140.9l27.5-6.5l3.6,15.2c6.1-13.1,16.1-21.6,29.1-24.7c5.5-1.3,10.2-1.9,13.1-2.3
					l2.4-0.3l6.5,27.4l-2.6-0.1c-1.4-0.1-8.6,1.3-12.4,2.2c-9.6,2.3-17,7.2-21.5,14.4c-5,8-6.2,18.5-3.4,30.4l18.7,78.7L384.5,717.8
					z M355.8,579.8L387.4,713l19.7-4.7l-17.8-74.8c-3.1-13-1.8-24.6,3.9-33.5c5.1-8,13.4-13.6,24-16.1c1.7-0.4,7.3-1.6,10.9-2.1
					l-4.5-19.1c-2.8,0.4-6.9,1-11.5,2.1c-17,4.1-25,17.5-28.6,28l-2.2,6.5l-5.7-24.1L355.8,579.8z"/>
			</g>
		</g>
	</g>
	<g>
		
			<linearGradient id="SVGID_00000105425626071723436870000000081878367957935269_" gradientUnits="userSpaceOnUse" x1="-23.1368" y1="140.1577" x2="1038.7866" y2="140.1577">
			<stop  offset="0" style="stop-color:#230032"/>
			<stop  offset="1" style="stop-color:#230032;stop-opacity:0"/>
		</linearGradient>
		<path style="fill:url(#SVGID_00000105425626071723436870000000081878367957935269_);" d="M713.7,234.6
			c26.7-17.2,58.6-23,89.6-16.2l38.5,8.3l197-18.1l-21.3-233L-23.1,71.6l21.3,233l709-65.5C709.3,237.6,711.5,236.1,713.7,234.6z"/>
	</g>
	<g>
		<path class="st1" d="M129.5,117.9l5.7,61.7l94.6-8.7l2.2,23.9l-94.6,8.7l5.7,61.7l104.4-9.6l0,0.5l0.3,0l2.2,23.7l-128.9,11.8
			L103.1,96L232,84.2l2.1,23.4l-0.3,0l0.1,0.8L129.5,117.9z"/>
		<path class="st1" d="M367.9,269.1l-42.2-47.9L292.6,276l-29.4,2.7l16.4-27.3l29.8-48.5l-57.7-64.6l29.4-2.7l41,46.4l31.6-53.1
			l29.6-2.7l-45,74l59,66.1L367.9,269.1z"/>
		<path class="st1" d="M487.1,146c-5.5-3.6-13.4-5.9-23.2-5c-26.1,2.4-42,25.8-39.6,52.2c2.4,26.4,22.6,46.4,48.4,44.1
			c10.6-1,18.1-5.5,23.4-10.4c6.3-6.1,8.9-13.4,9.4-17l25-2.3c-0.8,15.4-18.2,49.9-55.7,53.4c-38.6,3.5-71.2-25.8-74.8-65.5
			c-3.6-39.7,23.1-74.5,61.7-78c39.4-3.6,61.6,26.2,65,42.6l-25.6,2.3C499.8,158.6,495.6,151.3,487.1,146z"/>
		<path class="st1" d="M575.4,67.8c0.9,10.3-6.5,19.2-16.8,20.2c-10.3,0.9-19.2-6.5-20.2-16.8c-0.9-10.3,6.5-19.2,16.8-20.2
			C565.5,50,574.4,57.4,575.4,67.8z M585.1,249.2l-24.2,2.2l-12.9-140.3l24.2-2.2L585.1,249.2z"/>
		<path class="st1" d="M693.2,211.3l2.1,22.8c-3.4,1.7-11.9,7.7-22,8.6c-22.6,2.1-41.9-11-44.1-35.4l-7.5-81.8l-23.9,2.2l-1.9-20.9
			l23.9-2.2l-3.6-39.4l24.2-2.2l3.6,39.4l38.6-3.5l1.9,20.9l-38.6,3.5l7.4,81c1.1,12.5,9.7,16.1,20.3,15.1
			C682.7,218.6,691.2,213.1,693.2,211.3z"/>
		<g>
			<path class="st1" d="M803.3,218.4l7.8,1.7c16.3-12.6,22.7-30.7,23.1-38.5l-25.3,2.3c-1.5,7.5-11.8,24.1-34.6,26.2
				c-25.6,2.3-42.1-13.4-46.7-36.8l106.8-9.8c0-3-0.1-6.6-0.4-10.1c-3.5-37.8-33.8-67.1-71.9-63.6c-38.6,3.5-63.7,37.9-60,77.9
				c2.3,24.6,14.3,44.9,32.4,56.2C756.2,215.4,780,213.4,803.3,218.4z M764.3,113c22.8-2.1,39,12.6,44.4,32.9l-82.4,7.5
				C728.4,131.9,742,115,764.3,113z"/>
		</g>
		<path class="st1" d="M992.1,211.9l-24.2,2.2l-2.1-22.8c-9.5,15.9-25.2,27-45.6,28.9c-32.9,3-63.5-26-67.2-66.2
			c-3.7-40.2,21.2-74.3,54-77.3c20.4-1.9,37.9,6.4,50.1,20.6L950,18.4l24.2-2.2L992.1,211.9z M961.5,144
			c-2.5-26.9-19.6-46.5-45.2-44.1s-41.6,24.9-39.1,51.8c2.5,26.9,22.4,46.5,47.9,44.1S963.9,170.9,961.5,144z"/>
	</g>
	<g>
		
			<linearGradient id="SVGID_00000152984499625948837970000009722651755346378679_" gradientUnits="userSpaceOnUse" x1="2368.3987" y1="468.8538" x2="2845.3928" y2="468.8538" gradientTransform="matrix(0.9958 0.1833 -0.181 0.9835 -1211.5249 -743.7263)">
			<stop  offset="0" style="stop-color:#230032"/>
			<stop  offset="1" style="stop-color:#230032;stop-opacity:0"/>
		</linearGradient>
		<polygon style="fill:url(#SVGID_00000152984499625948837970000009722651755346378679_);" points="1515.9,354 1040.9,266.6 
			1083.3,36.5 1558.3,123.9 		"/>
	</g>
	<g>
		<path class="st1" d="M1174.9,128.9l-2.8,15.3l36.5,6.7l-3.8,20.7l-36.5-6.7l-21.7,117.9l-23.9-4.4l21.7-117.9l-22-4.1l3.8-20.7
			l22,4.1l2.9-15.8c4.4-23.9,25.5-37.2,47.5-33.2c7.2,1.3,15,4.7,19.6,8.3l-4.1,22.3c-4.1-3.3-10-6-17-7.3
			C1186.8,112.2,1177.1,116.8,1174.9,128.9z"/>
		<path class="st1" d="M1200.4,221c7.2-39.2,41.5-65.6,79.6-58.6l0.3,0c38.1,7,60.8,43.9,53.5,83.1c-7.2,39.2-41.5,65.6-79.6,58.6
			l-0.3,0C1215.8,297.1,1193.2,260.2,1200.4,221z M1258.6,280.3c25,4.6,46.5-13.1,51.3-39.1c4.6-25.2-9.1-50.2-34-54.8l-0.3,0
			c-25-4.3-46.5,13.1-51.3,39.1s9.1,50.2,34,54.8L1258.6,280.3z"/>
		<path class="st1" d="M1445,193.6l-4.3,23.4c-1.8-0.9-9.8-2.6-12.7-3.2c-19.3-3.6-38.2,5.5-43.2,32.6l-14.3,77.6l-23.9-4.4
			l25.5-138.5l23.9,4.4l-3.6,19.6c10.4-11.1,23.8-17.6,39.3-14.7C1437.6,191.4,1442.3,192.8,1445,193.6z"/>
	</g>
	<g>
		
			<linearGradient id="SVGID_00000025438785855491192780000015983452064813255056_" gradientUnits="userSpaceOnUse" x1="290.5635" y1="384.457" x2="730.9185" y2="384.457">
			<stop  offset="0" style="stop-color:#230032;stop-opacity:0"/>
			<stop  offset="1" style="stop-color:#230032"/>
		</linearGradient>
		<path style="fill:url(#SVGID_00000025438785855491192780000015983452064813255056_);" d="M678,399.1c-17.2-26.7-23-58.5-16.2-89.6
			c3.1-14.2,8.6-27.5,16.3-39.3l-231.3-7L297.1,277l-6.5,215.5L729,505.8l1.9-61.8C709.3,434.7,691,419.3,678,399.1z"/>
	</g>
	<g>
		<path class="st1" d="M395,466.3l-0.7,22.9c-3.6,1.3-12.8,6.2-22.8,5.9c-22.6-0.7-40.2-16-39.5-40.5l2.5-82.1l-24-0.7l0.6-21
			l24,0.7l1.2-39.6l24.3,0.7l-1.2,39.6l38.7,1.2l-0.6,21l-38.7-1.2l-2.5,81.3c-0.4,12.6,7.7,17.2,18.3,17.5
			C383.6,472.2,392.8,467.9,395,466.3z"/>
		<path class="st1" d="M538.9,414.7l-2.5,84.8l-24.3-0.7l2.5-84.8c0.6-19.1-14.5-35.4-33.6-36c-19.4-0.6-35.4,15-36,33.9l-2.5,84.8
			l-24.3-0.7l6-197.5l24.3,0.7l-2.3,77.5c11.4-14.7,28-22.6,45.7-22.1C518.5,355.3,540,378.7,538.9,414.7z"/>
		<g>
			<path class="st1" d="M678,399.1c-6.5-10-11.3-20.8-14.5-31.9c-8.7-5-18.8-8-29.8-8.3c-38.7-1.2-67.8,29.9-69,70
				c-1.2,40.7,25.1,72.9,65.8,74.1c42.8,1.3,61.6-32.5,63.6-44.2l-25.4-0.8c-2.4,7.3-14.6,22.5-37.5,21.8
				c-25.6-0.8-40.1-18.4-41.9-42.2l107.2,3.2c0.4-3,0.7-6.5,0.9-10.1c0.1-2.9,0-5.9-0.2-8.7C689.9,415.2,683.5,407.6,678,399.1z
				 M590.4,417.6c4.7-21.2,20.2-36.3,42.6-35.6c22.9,0.7,37.2,17.2,40.1,38.1L590.4,417.6z"/>
		</g>
	</g>
	<g>
		<g>
			<path class="st1" d="M1910,811.8c-13.7-22.8-34.1-39.9-58.5-49.4l-23.4-2.7l7.7,1.9c29.8,7.4,54.9,26,70.8,52.3
				s20.5,57.2,13.1,87c-7.4,29.8-26,54.9-52.3,70.8c-26.3,15.8-57.2,20.5-87,13.1L1161.8,831c-61.5-15.3-99.1-77.8-83.8-139.3
				c7.4-29.8,26-54.9,52.3-70.8c18.1-10.9,38.4-16.5,59.1-16.5c9.3,0,18.7,1.1,27.9,3.4l374.2,93l0.5-4l-373.7-92.9
				c-30.8-7.7-62.8-2.9-90.1,13.5c-27.2,16.4-46.4,42.4-54.1,73.2c-7.7,30.8-2.9,62.8,13.5,90.1c16.4,27.2,42.4,46.4,73.2,54.1
				l618.5,153.8c9.6,2.4,19.3,3.6,28.9,3.6c21.3,0,42.4-5.8,61.1-17.1c27.2-16.4,46.4-42.4,54.1-73.2
				C1931.2,871,1926.4,839,1910,811.8z"/>
		</g>
	</g>
	<g>
		<g>
			<path class="st1" d="M1201.5,842.5c-5.5,0-11.2-0.7-17.1-2.2c-19.8-4.9-29.9-16.6-34.9-25.6c-6.1-11-8-23.9-5.2-35.4l0.5-1.9
				l26.1,6.5l-0.5,1.9c-1.5,6.1,0,12.9,4,18.2l0.1,0.1c3.6,5.3,9.4,9.1,16.2,10.8c14.4,3.6,25.8-1.1,28.4-11.7
				c2.3-9.4-2.4-15.4-18.9-23.8l-14-7.1c-21.3-10.9-30-27.3-25-47.3c2.5-10,8.9-18.5,18.1-23.9c11.4-6.8,25.9-8.4,40.8-4.5
				c13.6,3.5,24.8,11.9,31.5,23.6c6.1,10.5,8,22.8,5.3,33.5l-0.5,1.9l-26.7-6.6l0.5-1.9c1.3-5.3,0.2-11.1-3-15.8
				c-3-4.7-7.8-7.9-13.7-9.4c-12.6-3.1-22.9,0.9-25.1,9.7c-2,8.1,1.6,13.7,12.5,19.1l15,7.4c24.8,12.3,35.6,30.7,30.4,51.8
				c-3,12-10.6,21.7-21.4,27.3C1218.1,840.7,1210.1,842.5,1201.5,842.5z M1147.8,782.3c-1.9,9.9,0,21.2,5.2,30.5
				c4.6,8.3,14,19.1,32.4,23.6c14.2,3.5,27.3,2.5,37.8-2.9c9.8-5.1,16.7-13.9,19.4-24.8c4.8-19.3-5-35.7-28.3-47.2l-15-7.4
				c-8.5-4.2-17.8-10.7-14.6-23.6c2.7-11,15.3-16.3,30-12.6c7,1.7,12.5,5.5,16.1,11c3.5,5,4.8,11.1,3.9,17l18.9,4.7
				c4.6-23.7-13.6-44.9-34.4-50.3c-13.9-3.6-27.3-2.1-37.8,4.1c-8.3,4.9-14.1,12.6-16.3,21.5c-4.5,18.3,3.2,32.7,22.9,42.8l14,7.1
				c20.7,10.5,23.4,18.7,21,28.3c-3.2,12.7-16.8,18.7-33.3,14.6c-7.8-1.9-14.3-6.3-18.5-12.4c-4.3-5.7-6.1-12.9-5-19.6L1147.8,782.3
				z"/>
		</g>
		<g>
			<path class="st1" d="M1281.4,862.7l-27.5-6.8l34.9-140.6l27.5,6.8l-0.5,1.9L1281.4,862.7z M1258.7,853l19.7,4.9l33-132.8
				l-19.7-4.9L1258.7,853z M1312.5,701.9c-1.7,0-3.4-0.2-5.1-0.6c-11.2-2.8-17.8-13.7-15-24.9c1.3-5.4,4.6-9.9,9.3-12.7
				c4.7-2.8,10.2-3.6,15.6-2.3c5.4,1.3,9.9,4.6,12.7,9.3s3.6,10.2,2.3,15.6l0,0C1329.9,695.7,1321.7,701.9,1312.5,701.9z
				 M1312.2,664.7c-7.4,0-14,5-15.9,12.6c-2.2,9,3.1,17.8,12.1,20.1c9,2.2,17.8-3.1,20.1-12.1l0,0c1.1-4.4,0.4-8.8-1.8-12.6
				c-2.3-3.8-5.9-6.4-10.3-7.5C1314.9,664.9,1313.5,664.7,1312.2,664.7z"/>
		</g>
		<g>
			<path class="st1" d="M1385.2,888.3c-4.9,0-10-0.6-15.3-1.9c-38.4-9.5-60.6-48.6-50.6-88.9c10-40.3,47.9-64.4,86.3-54.9
				c22,5.5,34,18.8,40.2,29c8.1,13.4,9.8,27.1,8.8,34.7l-0.3,2.2l-28.5-7.1l-0.1-1.5c-0.1-1.6-0.7-10.3-7.5-18.8l0,0
				c-3-3.9-8.8-9-19.2-11.6c-23.4-5.8-45.8,9.1-52.2,34.8c-6.4,25.6,6.4,49.3,29.8,55.1c8.3,2.1,16.5,1.4,24.3-2
				c7.6-3.5,12.1-9.4,13.5-12.1l0.7-1.4l28.2,7l-0.9,2.1C1436.9,866.6,1415,888.3,1385.2,888.3z M1388.8,744.6
				c-30.3,0-57.5,21.4-65.6,53.9c-9.5,38.1,11.5,75,47.7,84c19.5,4.9,35.3-1.1,45.1-7c10.7-6.5,18.3-15.2,21.7-21.7l-20.6-5.1
				c-2.2,3.5-7.1,9-14.6,12.5c-8.7,3.7-17.7,4.5-26.9,2.2c-25.6-6.4-39.6-32.1-32.7-60c6.9-27.8,31.4-44,57-37.7
				c11.5,2.9,18,8.7,21.4,13.1c5.4,6.7,7.8,14.2,8.3,19.6l21.2,5.3c0.9-16.9-11-48.4-46.1-57.1
				C1399.3,745.2,1394,744.6,1388.8,744.6z"/>
		</g>
		<g>
			<path class="st1" d="M1563.5,932.8L1536,926l4.4-17.7c-14,9.6-30.7,12.8-46.6,8.9c-28.6-7.1-43.2-37-34.7-71.2l20.7-83.3
				l27.5,6.8l-20.7,83.3c-4.4,17.6,6.3,35.5,23.8,39.9c8.5,2.1,17.4,0.7,25-3.9c7.5-4.6,12.8-11.7,14.9-20.1l20.7-83.3l27.5,6.8
				L1563.5,932.8z M1540.9,923.1l19.7,4.9l33-132.8l-19.7-4.9l-19.7,79.4c-2.3,9.4-8.3,17.4-16.7,22.6c-8.5,5.2-18.5,6.7-28,4.4
				c-19.6-4.9-31.6-24.9-26.7-44.7l19.7-79.4l-19.7-4.9L1463,847c-7.9,31.9,5.5,59.8,31.8,66.3c16.4,4.1,33.7-0.1,47.6-11.5l4.7-3.8
				L1540.9,923.1z"/>
		</g>
		<g>
			<path class="st1" d="M1619.1,946.7l-27.5-6.8l34.9-140.6l27.5,6.8l-3.8,15.2c11.5-8.8,24.2-11.8,37.2-8.6c5.5,1.4,10,3,12.6,3.9
				l2.3,0.8l-6.8,27.4l-2.3-1.3c-1.3-0.7-8.3-2.8-12-3.7c-9.5-2.4-18.4-1.4-25.7,2.9c-8.1,4.8-14,13.6-17,25.5L1619.1,946.7z
				 M1596.5,936.9l19.7,4.9l18.5-74.6c3.2-13,9.7-22.7,18.8-28c8.2-4.8,18.1-6,28.7-3.3c1.7,0.4,7.2,1.9,10.7,3.2l4.7-19
				c-2.6-0.9-6.5-2.3-11.2-3.4c-17-4.2-30.2,4.1-38.3,11.7l-5,4.7l6-24l-19.7-4.9L1596.5,936.9z"/>
		</g>
		<g>
			<path class="st1" d="M1747.7,978.3c-5.4,0-10.9-0.7-16.5-2l-0.3-0.1c-37.9-9.4-59.8-48.4-49.8-88.7c10-40.3,47.6-64.5,85.5-55.1
				l0.3,0.1c37.9,9.4,59.8,48.4,49.8,88.7C1808.2,955.6,1779.6,978.3,1747.7,978.3z M1750.3,834.4c-30,0-57.1,21.5-65.2,54.1
				c-9.5,38.1,11.1,75,46.9,83.9l0.3,0.1c35.8,8.9,71.2-14,80.7-52.1c9.5-38.1-11.1-75-46.9-83.9l-0.3-0.1
				C1760.6,835,1755.4,834.4,1750.3,834.4z M1747.9,954c-3.6,0-7.2-0.4-10.8-1.3h0l-0.3-0.1c-12.3-3.1-22.4-10.9-28.2-22.1
				c-5.7-10.9-7.1-24.1-3.8-37.2c6.8-27.3,30.9-43.3,56.1-37.4l0.3,0.1c12.3,3,22.3,11,28.2,22.4c5.7,11,7.1,24.1,3.9,36.9
				C1787.3,938.8,1768.9,954,1747.9,954z M1738.1,948.8c22.9,5.7,44.9-9.1,51.2-34.4c2.9-11.8,1.7-23.9-3.6-34.1
				c-5.4-10.4-14.4-17.6-25.6-20.4l-0.3-0.1c-23-5.4-45,9.4-51.2,34.4c-3,12.1-1.8,24.3,3.5,34.3c5.3,10.2,14.4,17.3,25.6,20.1
				L1738.1,948.8z"/>
		</g>
	</g>
	<g>
		
			<linearGradient id="SVGID_00000127040540873182167130000005031764800064980391_" gradientUnits="userSpaceOnUse" x1="2199.459" y1="88.687" x2="2453.8564" y2="88.687" gradientTransform="matrix(1.2262 0.1423 -0.1153 0.9933 -1085.3007 214.6001)">
			<stop  offset="0" style="stop-color:#FFFFFF;stop-opacity:0"/>
			<stop  offset="1" style="stop-color:#230032"/>
		</linearGradient>
		<polygon style="fill:url(#SVGID_00000127040540873182167130000005031764800064980391_);" points="1899.8,768 1587.9,731.8 
			1614.9,499.4 1926.8,535.6 		"/>
	</g>
	<g>
		
			<linearGradient id="SVGID_00000032626147550870593170000002944846727571831436_" gradientUnits="userSpaceOnUse" x1="2199.459" y1="88.687" x2="2453.8564" y2="88.687" gradientTransform="matrix(1.2262 0.1423 -0.1153 0.9933 -1085.3007 214.6001)">
			<stop  offset="0" style="stop-color:#230032;stop-opacity:0"/>
			<stop  offset="1" style="stop-color:#230032"/>
		</linearGradient>
		<polygon style="fill:url(#SVGID_00000032626147550870593170000002944846727571831436_);" points="1899.8,768 1587.9,731.8 
			1614.9,499.4 1926.8,535.6 		"/>
	</g>
	<g>
		<path class="st1" d="M1629,595.2c1.1-9.8,4.3-20.1,8.7-27.3c10.7-18.5,30.9-29.4,55.6-26.5c33.6,3.9,54.1,28.5,51.1,54.3
			c-2.3,20.1-11.4,29.2-36.2,44.4c-11,7-19.1,17.6-21.2,28.3c-0.2,1.4-0.3,3-0.4,5.7l-23-2.7c0-2.7,0.4-5.7,0.8-9
			c1.6-15.8,10.8-29.5,29.5-40.8c18-10.6,24.9-16.1,26.4-28.8c1.3-10.8-7-25.3-29.7-27.9c-22.2-2.6-34.4,12-37.9,33L1629,595.2z
			 M1668.1,739.6c10.8,1.3,20.5-6.4,21.8-17c1.2-10.6-6.1-20.5-17.3-21.8c-10.8-1.3-20.3,6.4-21.5,17.3
			C1649.8,728.7,1657.2,738.3,1668.1,739.6z"/>
		<path class="st1" d="M1757,610c1.1-9.8,4.3-20.1,8.7-27.3c10.7-18.5,30.9-29.4,55.6-26.5c33.6,3.9,54.1,28.5,51.1,54.3
			c-2.3,20.1-11.4,29.2-36.2,44.4c-11,7-19.1,17.6-21.2,28.3c-0.2,1.4-0.3,3-0.4,5.7l-23.1-2.7c0-2.7,0.4-5.7,0.8-9
			c1.6-15.8,10.8-29.5,29.5-40.8c18-10.6,24.9-16.1,26.4-28.8c1.3-10.8-7-25.3-29.7-27.9c-22.2-2.6-34.4,12-37.9,33L1757,610z
			 M1796,754.4c10.8,1.3,20.5-6.4,21.8-17c1.2-10.6-6.1-20.5-17.3-21.8c-10.8-1.3-20.3,6.4-21.5,17.3
			C1777.8,743.5,1785.2,753.2,1796,754.4z"/>
	</g>
	<g>
		<path class="st1" d="M1574.3,527.2c-50.5,0-97.5-32.5-113.5-83.2c-9.6-30.3-6.8-62.5,7.9-90.7c14.7-28.2,39.4-49,69.7-58.6
			L2000.2,149c30.3-9.6,62.5-6.8,90.7,7.9c28.2,14.7,49,39.4,58.6,69.7c9.6,30.3,6.8,62.5-7.9,90.7c-14.7,28.2-39.4,49-69.7,58.6
			L1610,521.7C1598.2,525.4,1586.1,527.2,1574.3,527.2z M2036.2,147.4c-11.6,0-23.3,1.8-34.7,5.4l-461.8,145.8
			c-29.3,9.2-53.2,29.3-67.4,56.6s-16.9,58.4-7.6,87.7c15.5,49,60.9,80.4,109.7,80.4c11.4,0,23.1-1.7,34.5-5.3l461.8-145.8
			c29.3-9.2,53.2-29.3,67.4-56.6c14.2-27.2,16.9-58.4,7.6-87.7c-9.2-29.3-29.3-53.2-56.6-67.4
			C2072.5,151.8,2054.4,147.4,2036.2,147.4z"/>
	</g>
	<g>
		<g>
			<path class="st1" d="M1614,517.2c-11.6,0-23-3-33.4-8.9c-16.4-9.3-28.7-24.9-34.7-43.9l0,0c-6-19-4.9-38.9,3.2-55.9
				c8.2-17.3,22.7-30,41-35.7l0.3-0.1c37.3-11.8,76.3,10,88.8,49.7c12.5,39.6-6.9,79.9-44.2,91.6l-0.3,0.1
				C1627.9,516.1,1620.9,517.2,1614,517.2z M1610.8,373.4c-6.4,0-12.8,1-19.2,3l-0.3,0.1c-17.2,5.4-30.9,17.4-38.6,33.6
				c-7.6,16.1-8.7,34.9-3,53l0,0c5.7,18.1,17.4,32.8,32.8,41.7c15.6,8.9,33.7,10.8,50.9,5.4l0.3-0.1c35.1-11.1,53.4-49.1,41.6-86.6
				C1665.7,392.8,1639.3,373.4,1610.8,373.4z M1614,492.9c-7.7,0-15.3-2.1-22.2-6.2c-10.6-6.3-18.6-16.9-22.7-29.7
				c-8.5-26.8,3.7-53.1,28.3-61.1l0.3-0.1c24.3-7.7,49.9,7.2,58.3,33.8c4.1,12.8,3.5,26.1-1.5,37.3c-5.2,11.5-14.7,20-26.8,23.8
				l-0.3,0.1C1623,492.2,1618.5,492.9,1614,492.9z M1610.6,397.8c-3.9,0-7.8,0.6-11.7,1.8l-0.3,0.1c-22.4,7.3-33.5,31.5-25.7,56.1
				c3.8,11.9,11.2,21.7,20.9,27.5c9.8,5.9,21.3,7.2,32.3,3.7l0.3-0.1c11-3.5,19.7-11.2,24.4-21.6c4.6-10.3,5.1-22.6,1.4-34.5
				C1645.8,410.6,1628.8,397.8,1610.6,397.8z"/>
		</g>
		<g>
			<path class="st1" d="M1752,474.7c-8.7,0-17.3-2.4-25.1-7.2c-12.7-7.8-22.2-20.7-27.5-37.5l-25.8-81.8l27-8.5l25.8,81.8
				c2.6,8.3,8.4,15.2,16.1,19.3c7.8,4.1,16.6,4.9,24.9,2.3c8.4-2.6,15.2-8.5,19.3-16.4c4-7.9,4.8-16.7,2.2-25l-25.8-81.8l27-8.5
				l43.6,138.1l-27,8.5l-5.5-17.4c-7,15.5-19.5,27-35.1,31.9C1761.5,473.9,1756.7,474.7,1752,474.7z M1678.6,350.7l24.6,78
				c5,15.9,13.9,28.1,25.7,35.3c11.1,6.8,23.9,8.4,36,4.6c16.1-5.1,28.7-17.7,34.6-34.7l2-5.7l7.8,24.7l19.4-6.1l-41.2-130.5
				l-19.4,6.1l24.6,78c2.9,9.3,2,19.2-2.5,28c-4.6,8.9-12.2,15.4-21.6,18.4c-9.3,2.9-19.3,2-28-2.6c-8.7-4.6-15.1-12.3-18.1-21.6
				l-24.6-78L1678.6,350.7z"/>
		</g>
		<g>
			<path class="st1" d="M1863.7,439.9l-43.6-138.1l27-8.5l43.6,138.1L1863.7,439.9z M1825.1,304.4l41.2,130.5l19.4-6.1l-41.2-130.5
				L1825.1,304.4z M1822.2,281.1c-3.2,0-6.4-0.8-9.4-2.3c-4.8-2.5-8.4-6.8-10.1-12.1s-1.2-10.9,1.3-15.7c2.5-4.8,6.8-8.4,12.1-10.1
				c5.3-1.7,10.9-1.2,15.7,1.3c4.8,2.5,8.4,6.8,10.1,12.1v0c3.5,11-2.4,22.3-13.4,25.8C1826.5,280.8,1824.3,281.1,1822.2,281.1z
				 M1822.5,243.9c-1.7,0-3.4,0.3-5.1,0.8c-4.3,1.3-7.7,4.2-9.8,8.1c-2,3.9-2.4,8.4-1,12.7c1.3,4.3,4.2,7.7,8.1,9.8
				c3.9,2,8.4,2.4,12.7,1c8.9-2.8,13.6-11.9,10.8-20.8c-1.3-4.3-4.2-7.7-8.1-9.8C1827.7,244.6,1825.1,243.9,1822.5,243.9z"/>
		</g>
		<g>
			<path class="st1" d="M1921.5,421.7l-0.6-1.9l-43-136.2l27-8.5l43.6,138.1L1921.5,421.7z M1882.9,286.2l41.2,130.5l19.4-6.1
				l-41.2-130.5L1882.9,286.2z M1880,262.9c-3.2,0-6.4-0.8-9.4-2.3c-4.8-2.5-8.4-6.8-10.1-12.1s-1.2-10.9,1.3-15.7
				c2.5-4.8,6.8-8.4,12.1-10.1c5.3-1.7,10.9-1.2,15.7,1.3c4.8,2.5,8.4,6.8,10.1,12.1c1.7,5.3,1.2,10.9-1.3,15.7
				c-2.5,4.8-6.8,8.4-12.1,10.1C1884.3,262.6,1882.1,262.9,1880,262.9z M1880.3,225.7c-1.7,0-3.4,0.3-5.1,0.8
				c-4.3,1.3-7.7,4.2-9.8,8.1s-2.4,8.4-1,12.7c1.3,4.3,4.2,7.7,8.1,9.8c3.9,2,8.4,2.4,12.7,1c4.3-1.3,7.7-4.2,9.8-8.1
				s2.4-8.4,1-12.7v0c-1.3-4.3-4.2-7.7-8.1-9.8C1885.5,226.3,1882.9,225.7,1880.3,225.7z"/>
		</g>
		<g>
			<path class="st1" d="M1980.1,403.2l-43.6-138.1l27-8.5l43.6,138.1L1980.1,403.2z M1941.5,267.7l41.2,130.5l19.4-6.1l-41.2-130.5
				L1941.5,267.7z M1938.6,244.4c-8.7,0-16.6-5.5-19.4-14.4c-3.5-11,2.4-22.3,13.4-25.8c11-3.5,22.3,2.4,25.8,13.4v0
				c3.5,11-2.4,22.3-13.4,25.8C1942.8,244.1,1940.7,244.4,1938.6,244.4z M1938.9,207.2c-1.7,0-3.4,0.3-5.1,0.8
				c-8.9,2.8-13.6,11.9-10.8,20.8c2.8,8.9,11.9,13.6,20.8,10.8c8.9-2.8,13.6-11.9,10.8-20.8c-1.3-4.3-4.2-7.7-8.1-9.8
				C1944.1,207.8,1941.5,207.2,1938.9,207.2z"/>
		</g>
	</g>
	<g>
		<path class="st1" d="M1569.2,243.8c-1.5,0-3.1-0.2-4.6-0.5c-11.5-2.5-18.8-13.9-16.3-25.4c2.5-11.7,13.7-18.9,25.4-16.3
			c11.7,2.5,18.9,13.7,16.3,25.4c-1.2,5.6-4.5,10.4-9.4,13.5C1577.1,242.7,1573.2,243.8,1569.2,243.8z M1568.9,205.1
			c-8,0-15,5.5-16.8,13.7l0,0c-2,9.4,3.9,18.6,13.3,20.6c4.5,1,9.2,0.2,13-2.3c3.9-2.5,6.6-6.4,7.6-11c2.1-9.5-3.8-18.6-13.3-20.6
			C1571.5,205.2,1570.2,205.1,1568.9,205.1z M1590,177.4l-21.6-4.7l22.3-130.4l33.4,7.2L1590,177.4z M1573,169.7l14.1,3.1l32-120.1
			l-25.2-5.5L1573,169.7z"/>
		<path class="st1" d="M1634.2,257.9c-1.5,0-3.1-0.2-4.6-0.5c-11.5-2.5-18.8-13.9-16.3-25.4c2.5-11.7,13.7-18.9,25.4-16.3
			c11.7,2.5,18.9,13.7,16.3,25.4c-1.2,5.6-4.5,10.4-9.4,13.5C1642.1,256.8,1638.2,257.9,1634.2,257.9z M1633.9,219.2
			c-8,0-15,5.5-16.8,13.7l0,0c-2,9.4,3.9,18.6,13.3,20.6c4.5,1,9.2,0.2,13-2.3c3.9-2.5,6.6-6.4,7.6-11c2.1-9.5-3.8-18.6-13.3-20.6
			C1636.5,219.3,1635.2,219.2,1633.9,219.2z M1655,191.5l-21.6-4.7l22.3-130.4l33.4,7.2L1655,191.5z M1638,183.8l14.1,3.1l32-120.1
			l-25.2-5.5L1638,183.8z"/>
	</g>
	<g>
		<path class="st2" d="M1781.5,170.7c13.4-62-26-123.3-88-136.7l-95.1-20.6c-62-13.4-123.3,26-136.7,88c-13.4,62,26,123.3,88,136.7
			l95.1,20.6c1.6,0.4,3.3,0.7,4.9,0.9l100.6-31.7C1765.9,212.4,1776.7,192.7,1781.5,170.7z"/>
		<path class="st1" d="M1644.8,258.7l-95.1-20.6c-62-13.4-101.4-74.8-88-136.7c13.4-62,74.8-101.4,136.7-88l95.1,20.6
			c62,13.4,101.4,74.8,88,136.7c-4.8,22-15.6,41.7-31.3,57.2l7.7-2.4c13.2-14.8,22.9-33.1,27.5-53.9c13.9-64.1-26.9-127.6-91-141.5
			l-95.1-20.6c-31.1-6.7-62.9-1-89.6,16.2c-26.7,17.2-45.2,43.8-51.9,74.8c-6.7,31.1-1,62.9,16.2,89.6s43.8,45.2,74.8,51.9
			l92.9,20.2l7.9-2.5C1648,259.4,1646.4,259.1,1644.8,258.7z"/>
		<path class="st1" d="M2149.5,226.6c-9.6-30.3-30.4-55.1-58.6-69.7c-28.2-14.7-60.4-17.5-90.7-7.9L1758,225.5l-7.7,2.4l-100.6,31.7
			l-7.9,2.5l-103.4,32.6c-30.3,9.6-55.1,30.4-69.7,58.6c-14.7,28.2-17.5,60.4-7.9,90.7c16,50.7,63,83.2,113.5,83.2
			c11.8,0,23.9-1.8,35.7-5.5l461.8-145.8c30.3-9.6,55.1-30.4,69.7-58.6C2156.3,289.2,2159.1,256.9,2149.5,226.6z M2138.1,315.5
			c-14.2,27.2-38.1,47.3-67.4,56.6l-461.8,145.8c-11.5,3.6-23.1,5.3-34.5,5.3c-48.8,0-94.3-31.4-109.7-80.4
			c-9.2-29.3-6.5-60.4,7.6-87.7s38.1-47.3,67.4-56.6l110.3-34.8l9.1-2.9l84.2-26.6l9-2.8l249.3-78.7c11.4-3.6,23.1-5.4,34.7-5.4
			c18.2,0,36.3,4.4,52.9,13c27.2,14.2,47.3,38.1,56.6,67.4C2154.9,257.1,2152.2,288.3,2138.1,315.5z"/>
	</g>
	<g>
		<path class="st1" d="M898.3,467.6c-16.1,3.6-32.9,3.7-49.6,0.1l-95.1-20.6c-62-13.4-101.4-74.8-88-136.7
			c13.4-62,74.8-101.4,136.7-88l95.1,20.6c62,13.4,101.4,74.8,88,136.7c-0.9,4-1.9,7.9-3.2,11.7l4.3-0.4c1.1-3.4,2-6.9,2.8-10.4
			c13.9-64.1-26.9-127.6-91-141.5l-95.1-20.6c-31.1-6.7-62.9-1-89.6,16.2c-26.7,17.2-45.2,43.8-51.9,74.8
			c-6.7,31.1-1,62.9,16.2,89.6s43.8,45.2,74.8,51.9l95.1,20.6c8.5,1.8,16.9,2.7,25.3,2.7c8.7,0,17.2-1,25.5-2.8L898.3,467.6z"/>
	</g>
	<g>
		<path class="st1" d="M773.2,452.8c-1.5,0-3.1-0.2-4.6-0.5c-11.5-2.5-18.8-13.9-16.3-25.4c2.5-11.7,13.7-18.9,25.4-16.3
			c11.7,2.5,18.9,13.7,16.3,25.4c-1.2,5.6-4.5,10.4-9.4,13.5C781.1,451.7,777.2,452.8,773.2,452.8z M772.9,414.1
			c-8,0-15,5.5-16.8,13.7l0,0c-2,9.4,3.9,18.6,13.3,20.6c4.5,1,9.2,0.2,13-2.3c3.9-2.5,6.6-6.4,7.6-11c2.1-9.5-3.8-18.6-13.3-20.6
			C775.5,414.2,774.2,414.1,772.9,414.1z M794,386.4l-21.6-4.7l22.3-130.4l33.4,7.2L794,386.4z M777,378.7l14.1,3.1l32-120.1
			l-25.2-5.5L777,378.7z"/>
		<path class="st1" d="M838.2,466.9c-1.5,0-3.1-0.2-4.6-0.5c-11.5-2.5-18.8-13.9-16.3-25.4c2.5-11.7,13.7-18.9,25.4-16.3
			c11.7,2.5,18.9,13.7,16.3,25.4c-1.2,5.6-4.5,10.4-9.4,13.5C846.1,465.8,842.2,466.9,838.2,466.9z M837.9,428.2
			c-8,0-15,5.5-16.8,13.7l0,0c-2,9.4,3.9,18.6,13.3,20.6c4.5,1,9.2,0.2,13-2.3c3.9-2.5,6.6-6.4,7.6-11c2.1-9.5-3.8-18.6-13.3-20.6
			C840.5,428.3,839.2,428.2,837.9,428.2z M859,400.5l-21.6-4.7l22.3-130.4l33.4,7.2L859,400.5z M842,392.8l14.1,3.1l32-120.1
			l-25.2-5.5L842,392.8z"/>
	</g>
	<polygon class="st1" points="510,574 510,578 908.7,578 908.4,574 	"/>
	<polygon class="st1" points="510,611 510,615 912.2,615 911.9,611 	"/>
	<rect x="498" y="648" class="st1" width="597" height="4"/>
	<path class="st1" d="M2416,52h-674.4c1.7,1.3,3.3,2.6,4.9,4H2416V52z"/>
	<path class="st1" d="M2416,93v-4h-642.7c0.7,1.3,1.4,2.7,2.1,4H2416z"/>
	<path class="st1" d="M2416,130v-4h-629.6c0.2,1.3,0.4,2.7,0.6,4H2416z"/>
	<g>
		
			<linearGradient id="SVGID_00000017503306902556860580000008567747415479118260_" gradientUnits="userSpaceOnUse" x1="1276.9166" y1="-2.5925" x2="1813.1697" y2="-2.5925" gradientTransform="matrix(0.9956 -9.392363e-02 9.392363e-02 0.9956 -368.1011 638.8915)">
			<stop  offset="0" style="stop-color:#230032"/>
			<stop  offset="1" style="stop-color:#230032;stop-opacity:0"/>
		</linearGradient>
		<polygon style="fill:url(#SVGID_00000017503306902556860580000008567747415479118260_);" points="1447.8,582.5 913.9,632.8 
			891.9,399.9 1425.8,349.6 		"/>
	</g>
	<g>
		<path class="st1" d="M1058.9,532.8l7.9,84l-24.2,2.3l-7.9-83.4c-1.8-19-18.8-33.3-37.8-31.5c-19.3,1.8-33.3,19.3-31.5,38.1
			l7.9,83.4l-24.2,2.3l-13.2-140.2l24.2-2.3l2.1,21.7c9.5-16,25.5-26,42.9-27.6C1031.7,477,1055.7,498.8,1058.9,532.8z"/>
		<path class="st1" d="M1158.6,586.5c22.8-2.2,33.1-18.7,34.5-26.3l25.3-2.4c-0.5,11.8-15,47.8-57.6,51.8
			c-40.5,3.8-70.6-24.9-74.4-65.4c-3.8-40,21.2-74.4,59.8-78c38.1-3.6,68.5,25.6,72.1,63.4c0.3,3.5,0.4,7.1,0.4,10.1l-106.8,10.1
			C1116.5,573.2,1133,588.9,1158.6,586.5z M1110.4,529.8l82.4-7.8c-5.5-20.3-21.7-35-44.5-32.8
			C1126,491.4,1112.5,508.3,1110.4,529.8z"/>
		<path class="st1" d="M1332.4,591.7l-42.4-47.8l-32.9,54.9l-29.4,2.8l16.3-27.3l29.7-48.6l-57.9-64.5l29.4-2.8l41.1,46.3l31.5-53.1
			l29.6-2.8l-44.8,74.2l59.1,66L1332.4,591.7z"/>
		<path class="st1" d="M1449.1,552.7l2.2,22.8c-3.4,1.7-11.9,7.7-21.9,8.7c-22.6,2.1-41.9-10.9-44.2-35.3l-7.7-81.8l-23.9,2.3
			l-2-20.9l23.9-2.3l-3.7-39.4l24.2-2.3l3.7,39.4l38.6-3.6l2,20.9l-38.6,3.6l7.6,81c1.2,12.5,9.7,16.1,20.3,15.1
			C1438.5,560,1447,554.6,1449.1,552.7z"/>
	</g>
</g>
<g id="Text">
</g>
</svg>
