<svg viewBox="0 0 1920 1760" xmlns="http://www.w3.org/2000/svg" xmlns:xlink="http://www.w3.org/1999/xlink"><linearGradient id="a" gradientUnits="userSpaceOnUse" x2="1920" y1="880" y2="880"><stop offset="0" stop-color="#fff"/><stop offset="1" stop-color="#5d00ff"/></linearGradient><path d="m0 0h1920v1760h-1920z" fill="url(#a)"/><path d="m299.56 195.87a97.66 97.66 0 0 1 0-195.31h501.88a97.66 97.66 0 0 1 0 195.31z" fill="#fff"/><path d="m801.44 1.12a97.1 97.1 0 0 1 0 194.19h-501.88a97.1 97.1 0 0 1 0-194.19h501.88m0-1.12h-501.88a98.21 98.21 0 0 0 -98.21 98.21 98.21 98.21 0 0 0 98.21 98.22h501.88a98.21 98.21 0 0 0 98.21-98.22 98.21 98.21 0 0 0 -98.21-98.21z"/><path d="m1160.56 391.31a97.65 97.65 0 1 1 0-195.3h501.88a97.65 97.65 0 0 1 0 195.3z" fill="#fff"/><path d="m1662.44 196.57a97.09 97.09 0 0 1 0 194.18h-501.88a97.09 97.09 0 1 1 0-194.18zm0-1.12h-501.88a98.21 98.21 0 0 0 -98.21 98.21 98.21 98.21 0 0 0 98.21 98.21h501.88a98.21 98.21 0 0 0 98.21-98.21 98.21 98.21 0 0 0 -98.21-98.21z"/><path d="m402.56 586.76a97.66 97.66 0 0 1 0-195.31h501.88a97.66 97.66 0 0 1 0 195.31z" fill="#fff"/><path d="m904.44 392a97.1 97.1 0 0 1 0 194.19h-501.88a97.1 97.1 0 0 1 0-194.19zm0-1.12h-501.88a98.21 98.21 0 0 0 -98.21 98.22 98.21 98.21 0 0 0 98.21 98.21h501.88a98.21 98.21 0 0 0 98.21-98.21 98.21 98.21 0 0 0 -98.21-98.22z"/><path d="m1056.56 1173.1a97.66 97.66 0 0 1 0-195.31h501.88a97.66 97.66 0 0 1 0 195.31z" fill="#fff"/><path d="m1558.44 978.35a97.1 97.1 0 0 1 0 194.19h-501.88a97.1 97.1 0 0 1 0-194.19zm0-1.12h-501.88a98.21 98.21 0 0 0 -98.21 98.22 98.21 98.21 0 0 0 98.21 98.21h501.88a98.21 98.21 0 0 0 98.21-98.21 98.21 98.21 0 0 0 -98.21-98.22z"/><path d="m357.56 1173.1a97.66 97.66 0 0 1 0-195.31h501.88a97.66 97.66 0 0 1 0 195.31z" fill="#fff"/><path d="m859.44 978.35a97.1 97.1 0 0 1 0 194.19h-501.88a97.1 97.1 0 0 1 0-194.19zm0-1.12h-501.88a98.21 98.21 0 0 0 -98.21 98.22 98.21 98.21 0 0 0 98.21 98.21h501.88a98.21 98.21 0 0 0 98.21-98.21 98.21 98.21 0 0 0 -98.21-98.22z"/><path d="m724.56 1368.55a97.66 97.66 0 0 1 0-195.31h501.88a97.66 97.66 0 0 1 0 195.31z" fill="#fff"/><path d="m1226.44 1173.8a97.1 97.1 0 0 1 0 194.19h-501.88a97.1 97.1 0 0 1 0-194.19zm0-1.12h-501.88a98.21 98.21 0 0 0 -98.21 98.21 98.21 98.21 0 0 0 98.21 98.22h501.88a98.21 98.21 0 0 0 98.21-98.22 98.21 98.21 0 0 0 -98.21-98.21z"/><path d="m246.56 1564a97.65 97.65 0 0 1 0-195.3h501.88a97.65 97.65 0 0 1 0 195.3z" fill="#fff"/><path d="m748.44 1369.25a97.09 97.09 0 0 1 0 194.18h-501.88a97.09 97.09 0 1 1 0-194.18zm0-1.13h-501.88a98.22 98.22 0 0 0 -98.21 98.22 98.21 98.21 0 0 0 98.21 98.21h501.88a98.21 98.21 0 0 0 98.21-98.21 98.22 98.22 0 0 0 -98.21-98.22z"/><path d="m1185.56 1759.44a97.66 97.66 0 0 1 0-195.31h501.88a97.66 97.66 0 0 1 0 195.31z" fill="#fff"/><path d="m1687.44 1564.69a97.1 97.1 0 0 1 0 194.19h-501.88a97.1 97.1 0 0 1 0-194.19zm0-1.12h-501.88a98.21 98.21 0 0 0 -98.21 98.22 98.21 98.21 0 0 0 98.21 98.21h501.88a98.21 98.21 0 0 0 98.21-98.21 98.21 98.21 0 0 0 -98.21-98.22z"/><g font-family="Helvetica" font-size="200"><text transform="translate(197.71 850.51)">Good at it?</text><text transform="translate(373.71 1171.51)">klar!</text><text transform="translate(1042.71 1172.51)">sicher</text></g></svg>