<?xml version="1.0" encoding="utf-8"?>
<!-- Generator: Adobe Illustrator 24.1.0, SVG Export Plug-In . SVG Version: 6.00 Build 0)  -->
<svg version="1.1" xmlns="http://www.w3.org/2000/svg" xmlns:xlink="http://www.w3.org/1999/xlink" x="0px" y="0px"
	 viewBox="0 0 1920 960" style="enable-background:new 0 0 1920 960;" xml:space="preserve">
<style type="text/css">
	.st0{clip-path:url(#SVGID_3_);fill:url(#SVGID_4_);}
	.st1{fill:url(#SVGID_5_);}
	.st2{fill:none;stroke:#230032;stroke-width:2;}
	.st3{fill:url(#SVGID_9_);}
	.st4{fill:url(#SVGID_10_);}
	.st5{fill:url(#SVGID_11_);}
	.st6{fill:none;stroke:#230032;stroke-width:2.026;}
	.st7{display:none;}
	.st8{display:inline;fill:none;}
	.st9{display:inline;}
	.st10{font-family:'StudioFeixenSans-Regular';}
	.st11{font-size:294px;}
	.st12{fill:#230032;}
</style>
<g id="Ebene_2">
</g>
<g id="Ebene_1">
	<g>
		<defs>
			<rect id="SVGID_1_" x="745" y="-0.5" width="1869" height="236.2"/>
		</defs>
		
			<linearGradient id="SVGID_2_" gradientUnits="userSpaceOnUse" x1="-7451.5469" y1="117.6546" x2="-5582.5469" y2="117.6546" gradientTransform="matrix(-1 0 0 -1 -4837.5469 235.3099)">
			<stop  offset="0" style="stop-color:#230032"/>
			<stop  offset="1" style="stop-color:#230032;stop-opacity:0"/>
		</linearGradient>
		<use xlink:href="#SVGID_1_"  style="overflow:visible;fill:url(#SVGID_2_);"/>
		<clipPath id="SVGID_3_">
			<use xlink:href="#SVGID_1_"  style="overflow:visible;"/>
		</clipPath>
		
			<linearGradient id="SVGID_4_" gradientUnits="userSpaceOnUse" x1="-7448.3652" y1="117.6546" x2="-5582.5469" y2="117.6546" gradientTransform="matrix(-1 0 0 -1 -4837.5469 235.3099)">
			<stop  offset="0" style="stop-color:#230032"/>
			<stop  offset="1" style="stop-color:#230032;stop-opacity:0"/>
		</linearGradient>
		<rect x="745" y="-0.5" class="st0" width="1865.8" height="236.2"/>
	</g>
	
		<linearGradient id="SVGID_5_" gradientUnits="userSpaceOnUse" x1="-538" y1="599.7703" x2="282.7599" y2="599.7703" gradientTransform="matrix(-1 0 0 -1 1410.1804 1199.5405)">
		<stop  offset="0" style="stop-color:#230032"/>
		<stop  offset="0.7672" style="stop-color:#230032;stop-opacity:0"/>
	</linearGradient>
	<path class="st1" d="M1946.7,478.5h-521.1c66.3,0,120,55.2,120,121.5s-53.7,120-120,120h522.6L1946.7,478.5z M1127.4,721"/>
	<g>
		<path class="st2" d="M154.5,721c-65.7,0-119,53.4-119,119.3c0,65.9,53.3,119.3,119,119.3h665.3c65.7,0,119-53.4,119-119.3
			c0-65.9-53.3-119.3-119-119.3H154.5z"/>
		<path class="st2" d="M154.5,721c-65.7,0-119,53.4-119,119.3c0,65.9,53.3,119.3,119,119.3h665.3c65.7,0,119-53.4,119-119.3
			c0-65.9-53.3-119.3-119-119.3H154.5z"/>
	</g>
	<g>
		<defs>
			<rect id="SVGID_6_" x="0" y="236.5" width="848" height="242.5"/>
		</defs>
		
			<linearGradient id="SVGID_7_" gradientUnits="userSpaceOnUse" x1="-5685.5469" y1="-122.4607" x2="-4837.5469" y2="-122.4607" gradientTransform="matrix(-1 0 0 -1 -4837.5469 235.3099)">
			<stop  offset="0" style="stop-color:#230032;stop-opacity:0"/>
			<stop  offset="1" style="stop-color:#230032"/>
		</linearGradient>
		<use xlink:href="#SVGID_6_"  style="overflow:visible;fill:url(#SVGID_7_);"/>
		<clipPath id="SVGID_8_">
			<use xlink:href="#SVGID_6_"  style="overflow:visible;"/>
		</clipPath>
	</g>
	<path class="st2" d="M656,720.5h769.6c66.3,0,120-54,120-120.5s-53.7-121.5-120-121.5H656c-66.3,0-120,54.9-120,121.5
		S589.7,720.5,656,720.5z"/>
</g>
<g id="Ebene_6">
	<g>
		<linearGradient id="SVGID_9_" gradientUnits="userSpaceOnUse" x1="979.6675" y1="828.6881" x2="2214.2354" y2="860.3945">
			<stop  offset="0" style="stop-color:#230032;stop-opacity:0"/>
			<stop  offset="1" style="stop-color:#230032"/>
		</linearGradient>
		<path class="st3" d="M1059.9,720c-65.7,0-119,53.6-119,119.8s53.3,119.8,119,119.8h702.5c65.7,0,119-53.6,119-119.8
			s-53.3-119.8-119-119.8H1059.9z"/>
		<linearGradient id="SVGID_10_" gradientUnits="userSpaceOnUse" x1="979.6675" y1="828.6881" x2="2214.2354" y2="860.3945">
			<stop  offset="0" style="stop-color:#230032;stop-opacity:0"/>
			<stop  offset="1" style="stop-color:#230032"/>
		</linearGradient>
		<path class="st4" d="M1059.9,720c-65.7,0-119,53.6-119,119.8s53.3,119.8,119,119.8h702.5c65.7,0,119-53.6,119-119.8
			s-53.3-119.8-119-119.8H1059.9z"/>
	</g>
	
		<linearGradient id="SVGID_11_" gradientUnits="userSpaceOnUse" x1="1382" y1="841.4998" x2="2619" y2="841.4998" gradientTransform="matrix(-1 0 0 -1 2609 1680.9996)">
		<stop  offset="0" style="stop-color:#230032;stop-opacity:0"/>
		<stop  offset="1" style="stop-color:#230032"/>
	</linearGradient>
	<path class="st5" d="M1191,959l36-0.5h-166.8c-65.7,0-119-53.3-119-119s53.3-119,119-119H1227l-36-0.5H-10v239H1191z M153.5,720.5
		h666.5c65.7,0,119,53.3,119,119s-53.3,119-119,119H153.5c-65.7,0-119-53.3-119-119S87.8,720.5,153.5,720.5z"/>
</g>
<g id="Ebene_4">
	<line class="st6" x1="1104.5" y1="478.5" x2="1920" y2="478.5"/>
	<line class="st2" x1="-1" y1="235.8" x2="1920" y2="235.8"/>
</g>
<g id="Ebene_8" class="st7">
	<rect x="26.3" y="22.6" class="st8" width="1483.7" height="248.4"/>
	<text transform="matrix(1 0 0 1 26.2891 234.2319)" class="st9 st10 st11">Quite late, </text>
	<rect x="743.3" y="267.6" class="st8" width="987.7" height="232.4"/>
	<text transform="matrix(1 0 0 1 743.2891 479.2319)" class="st9 st10 st11">huh...?</text>
	<rect x="96.3" y="504.6" class="st8" width="770.7" height="232.4"/>
	<text transform="matrix(1 0 0 1 96.2891 716.2324)" class="st9 st10 st11">uuuh!</text>
	<rect x="1119.3" y="503.6" class="st8" width="770.7" height="232.4"/>
	<text transform="matrix(1 0 0 1 1119.2891 715.2324)" class="st9 st10 st11">ooo!</text>
	<rect x="591.3" y="746.6" class="st8" width="770.7" height="232.4"/>
	<text transform="matrix(1 0 0 1 591.2891 958.2324)" class="st9 st10 st11">oups!</text>
</g>
<g id="Ebene_5">
	<g>
		<path class="st12" d="M584.4,201.6l24.4,28.2l-19.7,16.8c-0.3-0.3-11.8-13.5-24.1-28.2c-16.8,11.2-37,17.6-58.8,17.6
			c-59.4,0-109.1-48.2-109.1-107.6S446.8,20.8,506.2,20.8c59.7,0,106.4,48.2,106.4,107.6C612.6,156.6,602,182.5,584.4,201.6z
			 M547.6,198.4c-7.3-8.5-13.2-15.6-15-17.9l-42.9-50l19.7-16.8c0.3,0.6,37,43.5,41.7,49.1l16.2,18.8c12.1-14.4,19.1-32.9,19.1-53.2
			c0-45-35.3-81.4-80.3-81.4c-44.7,0-82.9,36.5-82.9,81.4s38.2,81.4,82.9,81.4C521.5,209.8,535.6,205.7,547.6,198.4z"/>
		<path class="st12" d="M774.9,236h-26.2v-25.3C736.7,226.9,719,236,700.2,236c-28.8,0-52.6-24.7-52.6-63.2V82.5h26.2v90.3
			c0,20.6,16.8,37.6,37.3,37.6c20.9,0,37.6-17.3,37.6-37.6V82.5h26.2V236z"/>
		<path class="st12" d="M855.4,38.7c0,11.2-8.8,20-20,20s-20-8.8-20-20s8.8-20,20-20S855.4,27.5,855.4,38.7z M848.1,236h-26.2V82.5
			h26.2V236z"/>
		<path class="st12" d="M973.6,204.2v24.7c-3.8,1.5-13.5,7.1-24.4,7.1c-24.4,0-43.8-15.9-43.8-42.3v-88.5h-25.9V82.5h25.9V39.9h26.2
			v42.6h41.7v22.6h-41.7v87.6c0,13.5,8.8,18.2,20.3,18.2C961.6,211,971.3,206,973.6,204.2z"/>
		<path class="st12" d="M1066.5,211c24.7,0,37.3-16.8,39.7-24.7h27.3c-1.8,12.6-20.9,49.7-67,49.7c-43.8,0-73.2-33.8-73.2-77.6
			c0-43.2,30.3-77.6,72-77.6c41.2,0,70.9,34.4,70.9,75.3c0,3.8-0.3,7.6-0.6,10.9h-115.5C1022.7,192.5,1038.9,211,1066.5,211z
			 M1020.7,145.4h89.1c-3.8-22.3-19.7-39.7-44.4-39.7C1041.3,105.8,1025.1,122.5,1020.7,145.4z"/>
		<path class="st12" d="M1283.2,236H1257V22.5h26.2V236z"/>
		<path class="st12" d="M1461.1,82.5v22.1v51.2c0,23.5,0,32.9,0,56.4v0.6V236h-26.2c0-14.1,0-22.3,0-27.6
			c-11.2,17.1-29.1,27.6-52.9,27.6h-0.3c-35.6,0-64.1-33.5-64.1-77.6c0-43.5,28.5-77.6,64.1-77.6h0.3c23.8,0,41.7,10.6,52.9,27.6
			V82.5H1461.1z M1434.9,158.4c0-29.1-17.9-52-44.1-52h-0.3c-29.1,0-46.7,22.1-46.7,52c0,30.6,17.9,52,46.7,52h0.3
			C1417,210.4,1434.9,187.5,1434.9,158.4z"/>
		<path class="st12" d="M1584.3,204.2v24.7c-3.8,1.5-13.5,7.1-24.4,7.1c-24.4,0-43.8-15.9-43.8-42.3v-88.5h-25.9V82.5h25.9V39.9
			h26.2v42.6h41.7v22.6h-41.7v87.6c0,13.5,8.8,18.2,20.3,18.2C1572.2,211,1581.9,206,1584.3,204.2z"/>
		<path class="st12" d="M1677.2,211c24.7,0,37.3-16.8,39.7-24.7h27.3c-1.8,12.6-20.9,49.7-67,49.7c-43.8,0-73.2-33.8-73.2-77.6
			c0-43.2,30.3-77.6,72-77.6c41.2,0,70.9,34.4,70.9,75.3c0,3.8-0.3,7.6-0.6,10.9h-115.5C1633.4,192.5,1649.5,211,1677.2,211z
			 M1631.3,145.4h89.1c-3.8-22.3-19.7-39.7-44.4-39.7C1651.9,105.8,1635.7,122.5,1631.3,145.4z"/>
		<path class="st12" d="M1793.9,196.1c16.2,0,23.2,12.9,22.6,27.3c-0.9,21.8-15.9,42.9-38.8,42.9v-11.8c9.1-0.9,18.8-10.9,18.5-20
			c-1.8,0.6-4.1,0.9-6.8,0.6c-7.6-0.6-15-7.6-15-19.7C1774.5,204.7,1784.2,196.1,1793.9,196.1z"/>
	</g>
	<g>
		<path class="st12" d="M269.5,388v90.3h-26.2V388c0-20.6-16.8-37.6-37.3-37.6c-20.9,0-37.6,17.3-37.6,37.6v90.3h-26.2V266.5h26.2
			V350c11.8-16.2,29.4-25.3,48.5-25.3C245.7,324.8,269.5,349.2,269.5,388z"/>
		<path class="st12" d="M435.9,478.2h-26.2v-23.5c-12.1,16.2-29.7,25.3-48.5,25.3c-28.8,0-52.6-24.7-52.6-63.2v-90.3h26.2v90.3
			c0,20.6,16.8,37.6,37.3,37.6c20.9,0,37.6-17.3,37.6-37.6v-90.3h26.2V478.2z"/>
		<path class="st12" d="M609.4,388v90.3h-26.2V388c0-20.6-16.8-37.6-37.3-37.6c-20.9,0-37.6,17.3-37.6,37.6v90.3h-26.2V266.5h26.2
			V350c11.8-16.2,29.4-25.3,48.5-25.3C585.6,324.8,609.4,349.2,609.4,388z"/>
		<path class="st12" d="M645.2,458.1c0-12.1,9.4-20.9,21.2-20.9c12.1,0,20.9,9.1,20.9,20.9c0,12.1-9.4,20.9-20.9,20.9
			C654.7,479,645.2,469.9,645.2,458.1z"/>
		<path class="st12" d="M717.9,458.1c0-12.1,9.4-20.9,21.2-20.9c12.1,0,20.9,9.1,20.9,20.9c0,12.1-9.4,20.9-20.9,20.9
			C727.3,479,717.9,469.9,717.9,458.1z"/>
		<path class="st12" d="M790.5,458.1c0-12.1,9.4-20.9,21.2-20.9c12.1,0,20.9,9.1,20.9,20.9c0,12.1-9.4,20.9-20.9,20.9
			C799.9,479,790.5,469.9,790.5,458.1z"/>
		<path class="st12" d="M858.4,329.3c0-10.6,2.1-22.1,5.9-30.3c9.1-21.2,29.4-35.3,56.2-35.3c36.5,0,61.4,23.8,61.4,51.7
			c0,21.8-8.5,32.6-33.2,52c-10.9,8.8-18.2,21.2-19.1,32.9c0,1.5,0,3.2,0.3,6.2h-25c-0.3-2.9-0.3-6.2-0.3-9.7
			c-0.3-17.1,7.9-32.9,26.5-47.3c17.9-13.5,24.7-20.3,24.7-34.1c0-11.8-10.6-26.2-35.3-26.2c-24.1,0-35.3,17.1-36.5,40H858.4z
			 M918.1,479c11.8,0,21.2-9.4,21.2-20.9s-9.1-21.2-21.2-21.2c-11.8,0-20.9,9.4-20.9,21.2C897.2,469.6,906.3,479,918.1,479z"/>
	</g>
	<g>
		<path class="st12" d="M244.2,959H218v-24.3C206,950.9,188.3,960,169.5,960c-28.8,0-52.6-24.7-52.6-63.2v-90.3H143v90.3
			c0,20.6,16.8,37.6,37.3,37.6c20.9,0,37.6-17.3,37.6-37.6v-90.3h26.2V959z"/>
		<path class="st12" d="M415.3,959h-26.2v-24.3c-12.1,16.2-29.7,25.3-48.5,25.3c-28.8,0-52.6-24.7-52.6-63.2v-90.3h26.2v90.3
			c0,20.6,16.8,37.6,37.3,37.6c20.9,0,37.6-17.3,37.6-37.6v-90.3h26.2V959z"/>
		<path class="st12" d="M586.4,959h-26.2v-24.3c-12.1,16.2-29.7,25.3-48.5,25.3c-28.8,0-52.6-24.7-52.6-63.2v-90.3h26.2v90.3
			c0,20.6,16.8,37.6,37.3,37.6c20.9,0,37.6-17.3,37.6-37.6v-90.3h26.2V959z"/>
		<path class="st12" d="M759.8,868v91.3h-26.2V868c0-20.6-16.8-37.6-37.3-37.6c-20.9,0-37.6,17.3-37.6,37.6v91.3h-26.2V746.5h26.2
			V830c11.8-16.2,29.4-25.3,48.5-25.3C736,804.8,759.8,829.2,759.8,868z"/>
		<path class="st12" d="M798.3,939.1c0-11.8,9.1-20.9,20.9-20.9c11.8,0,20.9,9.1,20.9,20.9s-9.4,20.9-20.9,20.9
			C807.8,960,798.3,950.6,798.3,939.1z M828.9,884.7h-19.7l-6.2-138.2h32.3L828.9,884.7z"/>
	</g>
	<g>
		<path class="st12" d="M1128.1,881.4c0-42.9,31.2-77.6,72.9-77.6h0.3c41.8,0,72.9,34.7,72.9,77.6s-31.2,77.6-72.9,77.6h-0.3
			C1159.3,959,1128.1,924.3,1128.1,881.4z M1201.3,932.8c27.3,0,46.7-22.9,46.7-51.5c0-27.6-19.4-51.5-46.7-51.5h-0.3
			c-27.3,0.3-46.7,22.9-46.7,51.5s19.4,51.5,46.7,51.5H1201.3z"/>
		<path class="st12" d="M1301.9,881.4c0-42.9,31.2-77.6,72.9-77.6h0.3c41.7,0,72.9,34.7,72.9,77.6s-31.2,77.6-72.9,77.6h-0.3
			C1333,959,1301.9,924.3,1301.9,881.4z M1375.1,932.8c27.3,0,46.7-22.9,46.7-51.5c0-27.6-19.4-51.5-46.7-51.5h-0.3
			c-27.3,0.3-46.7,22.9-46.7,51.5s19.4,51.5,46.7,51.5H1375.1z"/>
		<path class="st12" d="M1653.5,938.1c0-11.8,9.1-20.9,20.9-20.9c11.8,0,20.9,9.1,20.9,20.9s-9.4,20.9-20.9,20.9
			C1662.9,959,1653.5,949.6,1653.5,938.1z M1684.1,883.7h-19.7l-6.2-138.2h32.3L1684.1,883.7z"/>
		<path class="st12" d="M1606.4,959h-26.2v-24.3c-12.1,16.2-29.7,25.3-48.5,25.3c-28.8,0-52.6-24.7-52.6-63.2v-90.3h26.2v90.3
			c0,20.6,16.8,37.6,37.3,37.6c20.9,0,37.6-17.3,37.6-37.6v-90.3h26.2V959z"/>
	</g>
	<g>
		<path class="st12" d="M683.1,643.4c0-42.9,31.2-77.6,72.9-77.6h0.3c41.8,0,72.9,34.7,72.9,77.6S798.1,721,756.3,721H756
			C714.3,721,683.1,686.3,683.1,643.4z M756.3,694.8c27.3,0,46.7-22.9,46.7-51.5c0-27.6-19.4-51.5-46.7-51.5H756
			c-27.3,0.3-46.7,22.9-46.7,51.5s19.4,51.5,46.7,51.5H756.3z"/>
		<path class="st12" d="M988,721h-26.2v-25.3c-12.1,16.2-29.7,25.3-48.5,25.3c-28.8,0-52.6-24.7-52.6-63.2v-90.3h26.2v90.3
			c0,20.6,16.8,37.6,37.3,37.6c20.9,0,37.6-17.3,37.6-37.6v-90.3H988V721z"/>
		<path class="st12" d="M1176.4,643.4c0,43.5-30,77.6-65.6,77.6c-22.1,0-40-10.6-51.7-27.3V788H1033V567.5h26.2v25.3
			c11.8-16.8,29.7-27,51.7-27C1146.4,565.8,1176.4,599.9,1176.4,643.4z M1149.4,643.4c0-29.1-18.5-52-46.2-52s-44.1,22.9-44.1,52
			c0,29.1,16.5,51.7,44.1,51.7S1149.4,672.5,1149.4,643.4z"/>
		<path class="st12" d="M1236.1,689.5c5.3,4.7,12.6,7.6,21.2,7.6c18.2,0,28.8-9.7,28.8-21.8c0-12.3-8.5-17.6-27.6-22.1l-16.5-3.8
			c-18.8-4.4-36.8-15.3-36.8-40.9c0-23.2,20.9-43.2,52-42.9c31.8,0.3,51.2,25.9,51.2,47.9h-25.3c0-6.2-2.6-12.6-7.9-17.3
			c-4.4-4.1-10.6-6.8-18.2-6.8c-15.3,0-25.9,7.9-25.9,18.8c0,10.6,6.5,15.9,19.7,18.8l17.6,3.8c29.4,6.5,43.5,22.6,43.5,44.1
			c0,25.6-20.6,45.9-54.7,45.9c-36.8,0-55.6-28.2-55.6-51.2h24.7C1226.4,677.2,1229.9,684.5,1236.1,689.5z"/>
		<path class="st12" d="M1341.1,700.1c0-11.8,9.1-20.9,20.9-20.9c11.8,0,20.9,9.1,20.9,20.9s-9.4,20.9-20.9,20.9
			C1350.5,721,1341.1,711.6,1341.1,700.1z M1371.6,645.7h-19.7l-6.2-138.2h32.3L1371.6,645.7z"/>
	</g>
</g>
</svg>
