<?xml version="1.0" encoding="utf-8"?>
<!-- Generator: Adobe Illustrator 25.3.1, SVG Export Plug-In . SVG Version: 6.00 Build 0)  -->
<svg version="1.1" xmlns="http://www.w3.org/2000/svg" xmlns:xlink="http://www.w3.org/1999/xlink" x="0px" y="0px"
	 viewBox="0 0 1920 960" style="enable-background:new 0 0 1920 960;" xml:space="preserve">
<style type="text/css">
	.st0{clip-path:url(#SVGID_3_);fill:url(#SVGID_4_);}
	.st1{fill:url(#SVGID_8_);}
	.st2{fill:url(#SVGID_9_);}
	.st3{fill:url(#SVGID_10_);}
	.st4{fill:none;stroke:#230032;stroke-width:2;}
	.st5{fill:url(#SVGID_11_);}
	.st6{fill:url(#SVGID_12_);}
	.st7{fill:none;stroke:#230032;stroke-width:2.026;}
	.st8{fill:#230032;}
	.st9{display:none;}
	.st10{display:inline;fill:none;}
	.st11{display:inline;}
	.st12{font-family:'StudioFeixenSans-Regular';}
	.st13{font-size:294px;}
	.st14{letter-spacing:-5;}
	.st15{letter-spacing:-29;}
	.st16{letter-spacing:-8;}
	.st17{letter-spacing:11;}
</style>
<g id="Ebene_2">
</g>
<g id="Ebene_1">
</g>
<g id="Ebene_6">
	<g>
		<defs>
			<rect id="SVGID_1_" x="-465" width="1869" height="235.8"/>
		</defs>
		
			<linearGradient id="SVGID_2_" gradientUnits="userSpaceOnUse" x1="-8661.5469" y1="117.8839" x2="-6792.5469" y2="117.8839" gradientTransform="matrix(1 0 0 1 8196.5469 6.738371e-04)">
			<stop  offset="0" style="stop-color:#230032"/>
			<stop  offset="1" style="stop-color:#230032;stop-opacity:0"/>
		</linearGradient>
		<use xlink:href="#SVGID_1_"  style="overflow:visible;fill:url(#SVGID_2_);"/>
		<clipPath id="SVGID_3_">
			<use xlink:href="#SVGID_1_"  style="overflow:visible;"/>
		</clipPath>
		
			<linearGradient id="SVGID_4_" gradientUnits="userSpaceOnUse" x1="-8658.3652" y1="117.8839" x2="-6792.5469" y2="117.8839" gradientTransform="matrix(1 0 0 1 8196.5469 6.738371e-04)">
			<stop  offset="0" style="stop-color:#230032"/>
			<stop  offset="1" style="stop-color:#230032;stop-opacity:0"/>
		</linearGradient>
		<rect x="-461.8" class="st0" width="1865.8" height="235.8"/>
	</g>
	<g>
		<defs>
			<rect id="SVGID_5_" x="1091" y="236.5" width="1216" height="242.5"/>
		</defs>
		
			<linearGradient id="SVGID_6_" gradientUnits="userSpaceOnUse" x1="-4226.5469" y1="-122.4615" x2="-3010.5466" y2="-122.4615" gradientTransform="matrix(1 0 0 1 5317.5469 480.233)">
			<stop  offset="0" style="stop-color:#230032;stop-opacity:0"/>
			<stop  offset="1" style="stop-color:#230032"/>
		</linearGradient>
		<use xlink:href="#SVGID_5_"  style="overflow:visible;fill:url(#SVGID_6_);"/>
		<clipPath id="SVGID_7_">
			<use xlink:href="#SVGID_5_"  style="overflow:visible;"/>
		</clipPath>
	</g>
	<g>
		<linearGradient id="SVGID_8_" gradientUnits="userSpaceOnUse" x1="-271.455" y1="597.4293" x2="1589.5383" y2="626.9168">
			<stop  offset="0" style="stop-color:#230032"/>
			<stop  offset="1" style="stop-color:#230032;stop-opacity:0"/>
		</linearGradient>
		<path class="st1" d="M-474,479.5V721h3.2H301c-66.3,0-120-54-120-120.5c0-62.8,47.7-115.1,108.7-120.9h-760.6H-474z"/>
		<linearGradient id="SVGID_9_" gradientUnits="userSpaceOnUse" x1="-271.8926" y1="581.0739" x2="1471.3914" y2="608.6964">
			<stop  offset="0" style="stop-color:#230032"/>
			<stop  offset="1" style="stop-color:#230032;stop-opacity:0"/>
		</linearGradient>
		<path class="st2" d="M1064.9,720.5c-65.7,0-119-54.1-119-120.8c0-62.8,47.3-114.5,107.7-120.2H836.9
			c61,5.8,108.7,58.2,108.7,120.9c0,52.6-33.6,97.4-80.3,113.8c-5.1,1.8-10.9,2.6-16.3,3.7c-7.7,1.6-15.2,3-23.4,3H1404v-0.5H1064.9
			z"/>
		<linearGradient id="SVGID_10_" gradientUnits="userSpaceOnUse" x1="-290.0326" y1="466.2196" x2="1483.1251" y2="494.3154">
			<stop  offset="0" style="stop-color:#230032"/>
			<stop  offset="1" style="stop-color:#230032;stop-opacity:0"/>
		</linearGradient>
		<path class="st3" d="M253,479c-3.8,0-7.6,0.2-11.3,0.5h594.1c-3.7-0.4-7.5-0.5-11.3-0.5H253z"/>
	</g>
	<path class="st4" d="M1066,721h562.6c66.3,0,120-54,120-120.5s-53.7-121.5-120-121.5H1066c-66.3,0-120,54.9-120,121.5
		S999.7,721,1066,721z"/>
	
		<linearGradient id="SVGID_11_" gradientUnits="userSpaceOnUse" x1="933" y1="842.5" x2="2938" y2="842.5" gradientTransform="matrix(1 0 0 1 -978 -2)">
		<stop  offset="0" style="stop-color:#230032;stop-opacity:0"/>
		<stop  offset="1" style="stop-color:#230032"/>
	</linearGradient>
	<path class="st5" d="M130.8,721.5 M-45,721v239h2005V721H-45z M130.8,959.5 M680.5,721h441.5c65.7,0,119,53.7,119,119.5
		s-53.3,119-119,119H680.5c-65.7,0-119-53.3-119-119S614.8,721,680.5,721z"/>
	<linearGradient id="SVGID_12_" gradientUnits="userSpaceOnUse" x1="331.9912" y1="544.9115" x2="886.3544" y2="674.9736">
		<stop  offset="0" style="stop-color:#230032;stop-opacity:0"/>
		<stop  offset="1" style="stop-color:#230032"/>
	</linearGradient>
	<path class="st6" d="M827.5,478H299.9c-65.7,0-119,54.3-119,121.3s53.3,121.3,119,121.3L827,721l0.5-0.5c65.7,0,119-54.3,119-121.3
		S893.2,478,827.5,478z M834.5,505.7L828,644.4h-19.7l-6.2-138.8H834.5z M818.3,720c-11.5,0-20.9-9.4-20.9-21c0-11.8,9.1-21,20.9-21
		c11.8,0,20.9,9.2,20.9,21S829.8,720,818.3,720z"/>
	<line class="st7" x1="-103" y1="479" x2="1920" y2="479"/>
	<line class="st7" x1="-103" y1="721" x2="1920" y2="721"/>
	<line class="st4" x1="-1" y1="235.8" x2="1920" y2="235.8"/>
	<g>
		<path class="st8" d="M549.7,235.2h-26.2L475.6,67.1l-47.9,168.2h-26.2L341.2,23.5h26.2l47.3,167.6l47.6-167.6h26.5l47.6,167.6
			l47.3-167.6H610L549.7,235.2z"/>
		<path class="st8" d="M752.8,83.5v22.1v51.2c0,23.5,0,32.9,0,56.4v0.6v21.5h-26.2c0-12.3,0-20.6,0-25.9
			c-11.2,17.1-29.1,27.6-52.9,27.6h-0.3c-35.6,0-64.1-33.5-64.1-77.6c0-43.5,28.5-77.6,64.1-77.6h0.3c23.8,0,41.7,10.6,52.9,27.6
			V83.5H752.8z M726.7,159.4c0-29.1-17.9-52-44.1-52h-0.3c-29.1,0-46.7,22.1-46.7,52c0,30.6,17.9,52,46.7,52h0.3
			C708.7,211.4,726.7,188.5,726.7,159.4z"/>
		<path class="st8" d="M832.5,39.7c0,11.2-8.8,20-20,20c-11.2,0-20-8.8-20-20s8.8-20,20-20C823.7,19.7,832.5,28.5,832.5,39.7z
			 M825.2,235.2H799V83.5h26.2V235.2z"/>
		<path class="st8" d="M950.7,205.2v24.7c-3.8,1.5-13.5,7.1-24.4,7.1c-24.4,0-43.8-15.9-43.8-42.3v-88.5h-25.9V83.5h25.9V40.9h26.2
			v42.6h41.7v22.6h-41.7v87.6c0,13.5,8.8,18.2,20.3,18.2C938.6,212,948.3,207,950.7,205.2z"/>
		<path class="st8" d="M1016.8,39.7c0,11.2-8.8,20-20,20c-11.2,0-20-8.8-20-20s8.8-20,20-20C1008,19.7,1016.8,28.5,1016.8,39.7z
			 M1009.5,235.2h-26.2V83.5h26.2V235.2z"/>
		<path class="st8" d="M1185,144.4v90.8h-26.2V145c0-20.6-16.8-37.6-37.3-37.6c-20.9,0-37.6,17.3-37.6,37.6v90.3h-26.2V83.5h26.2
			V107c11.8-16.2,30-25.3,48.8-25.3C1161.5,81.8,1185,107.6,1185,144.4z"/>
		<path class="st8" d="M1366.4,229.6c0,45-30.9,77.9-74.4,77.9s-71.4-30.3-73.5-58.5h27.3c1.8,16.5,20,33.2,46.7,33.2
			c27.9,0,47.6-22.1,47.6-53.2v-19.1c-11.8,16.8-29.7,27-51.7,27c-35.6,0-65.6-34.1-65.6-77.6c0-43.5,30-77.6,65.6-77.6
			c22.1,0,40,10.6,51.7,27.3V83.5h26.2V229.6z M1340.2,159.4c0-29.1-16.5-51.7-44.1-51.7c-28.5,0-47,22.6-47,51.7
			c0,29.4,18.5,52,47,52C1323.8,211.4,1340.2,188.5,1340.2,159.4z"/>
		<path class="st8" d="M1499.4,66.8v16.8h40v22.6h-40v129.1h-26.2V106.2h-24.1V83.5h24.1V66.2c0-26.2,19.7-44.4,43.8-44.4
			c7.9,0,16.8,2.1,22.3,5v24.4c-5-2.6-11.8-4.4-19.4-4.4C1508.9,46.8,1499.4,53.5,1499.4,66.8z"/>
		<path class="st8" d="M1550.3,159.4c0-42.9,31.2-77.6,72.9-77.6h0.3c41.7,0,72.9,34.7,72.9,77.6c0,42.9-31.2,77.6-72.9,77.6h-0.3
			C1581.5,237,1550.3,202.3,1550.3,159.4z M1623.5,210.8c27.3,0,46.7-22.9,46.7-51.5c0-27.6-19.4-51.5-46.7-51.5h-0.3
			c-27.3,0.3-46.7,22.9-46.7,51.5s19.4,51.5,46.7,51.5H1623.5z"/>
		<path class="st8" d="M1809.9,82.6v25.6c-2.1-0.6-10.9-0.9-14.1-0.9c-21.2,0-39.4,13.2-39.4,42.9v85h-26.2V83.5h26.2V105
			c8.8-13.8,21.8-23.2,38.8-23.2C1801.7,81.8,1807,82.3,1809.9,82.6z"/>
	</g>
	<g>
		<path class="st8" d="M122.8,448.2v24.7c-3.8,1.5-13.5,7.1-24.4,7.1c-24.4,0-43.8-15.9-43.8-42.3v-88.5H28.8v-22.6h25.9v-42.6h26.2
			v42.6h41.8v22.6H80.8v87.6c0,13.5,8.8,18.2,20.3,18.2C110.8,455,120.5,450,122.8,448.2z"/>
		<path class="st8" d="M276,389v90.3h-26.2V389c0-20.6-16.8-37.6-37.3-37.6c-20.9,0-37.6,17.3-37.6,37.6v90.3h-26.2V267.5h26.2V351
			c11.8-16.2,29.4-25.3,48.5-25.3C252.2,325.8,276,350.2,276,389z"/>
		<path class="st8" d="M377.4,455c24.7,0,37.3-16.8,39.7-24.7h27.3c-1.8,12.6-20.9,49.7-67,49.7c-43.8,0-73.2-33.8-73.2-77.6
			c0-43.2,30.3-77.6,72-77.6c41.2,0,70.9,34.4,70.9,75.3c0,3.8-0.3,7.6-0.6,10.9H331C333.6,436.5,349.8,455,377.4,455z M331.6,389.4
			h89.1c-3.8-22.3-19.7-39.7-44.4-39.7C352.2,349.8,336,366.5,331.6,389.4z"/>
		<path class="st8" d="M694.2,479.2h-25.9l-35.9-111.7l-35.3,111.7h-25.9l-51.7-151.7h26.5L584,439.8l35.6-112.3h25.6l36.5,112.6
			l37.9-112.6H746L694.2,479.2z"/>
		<path class="st8" d="M794.8,283.7c0,11.2-8.8,20-20,20c-11.2,0-20-8.8-20-20s8.8-20,20-20C786,263.7,794.8,272.5,794.8,283.7z
			 M787.4,479.2h-26.2V327.5h26.2V479.2z"/>
		<path class="st8" d="M957.1,388.4v90.8h-26.2V389c0-20.6-16.8-37.6-37.3-37.6c-20.9,0-37.6,17.3-37.6,37.6v90.3h-26.2V327.5h26.2
			V351c11.8-16.2,30-25.3,48.8-25.3C933.6,325.8,957.1,351.6,957.1,388.4z"/>
		<path class="st8" d="M1122,388.4v90.8h-26.2V389c0-20.6-16.8-37.6-37.3-37.6c-20.9,0-37.6,17.3-37.6,37.6v90.3h-26.2V327.5h26.2
			V351c11.8-16.2,30-25.3,48.8-25.3C1098.5,325.8,1122,351.6,1122,388.4z"/>
		<path class="st8" d="M1223.4,456c24.7,0,37.3-16.8,39.7-24.7h27.3c-1.8,12.6-20.9,49.7-67,49.7c-43.8,0-73.2-33.8-73.2-77.6
			c0-43.2,30.3-77.6,72-77.6c41.2,0,70.9,34.4,70.9,75.3c0,3.8-0.3,7.6-0.6,10.9H1177C1179.6,437.5,1195.8,456,1223.4,456z
			 M1177.6,390.4h89.1c-3.8-22.3-19.7-39.7-44.4-39.7C1198.2,350.8,1182,367.5,1177.6,390.4z"/>
		<path class="st8" d="M1399.3,326.6v25.6c-2.1-0.6-10.9-0.9-14.1-0.9c-21.2,0-39.4,13.2-39.4,42.9v85h-26.2V327.5h26.2V349
			c8.8-13.8,21.8-23.2,38.8-23.2C1391,325.8,1396.3,326.3,1399.3,326.6z"/>
		<path class="st8" d="M1443.9,449.5c5.3,4.7,12.6,7.6,21.2,7.6c18.2,0,28.8-9.7,28.8-21.8c0-12.3-8.5-17.6-27.6-22.1l-16.5-3.8
			c-18.8-4.4-36.8-15.3-36.8-40.9c0-23.2,20.9-43.2,52-42.9c31.8,0.3,51.2,25.9,51.2,47.9H1491c0-6.2-2.6-12.6-7.9-17.3
			c-4.4-4.1-10.6-6.8-18.2-6.8c-15.3,0-25.9,7.9-25.9,18.8c0,10.6,6.5,15.9,19.7,18.8l17.6,3.8c29.4,6.5,43.5,22.6,43.5,44.1
			c0,25.6-20.6,45.9-54.7,45.9c-36.8,0-55.6-28.2-55.6-51.2h24.7C1434.2,437.2,1437.8,444.5,1443.9,449.5z"/>
		<path class="st8" d="M1596.4,459.1c0-12.1,9.4-20.9,21.2-20.9c12.1,0,20.9,9.1,20.9,20.9c0,12.1-9.4,20.9-20.9,20.9
			C1605.8,480,1596.4,470.9,1596.4,459.1z"/>
		<path class="st8" d="M1663.1,459.1c0-12.1,9.4-20.9,21.2-20.9c12.1,0,20.9,9.1,20.9,20.9c0,12.1-9.4,20.9-20.9,20.9
			C1672.5,480,1663.1,470.9,1663.1,459.1z"/>
		<path class="st8" d="M1729.8,459.1c0-12.1,9.4-20.9,21.2-20.9c12.1,0,20.9,9.1,20.9,20.9c0,12.1-9.4,20.9-20.9,20.9
			C1739.2,480,1729.8,470.9,1729.8,459.1z"/>
		<path class="st8" d="M1768.4,330.3c0-10.6,2.1-22.1,5.9-30.3c9.1-21.2,29.4-35.3,56.2-35.3c36.5,0,61.4,23.8,61.4,51.7
			c0,21.8-8.5,32.6-33.2,52c-10.9,8.8-18.2,21.2-19.1,32.9c0,1.5,0,3.2,0.3,6.2h-25c-0.3-2.9-0.3-6.2-0.3-9.7
			c-0.3-17.1,7.9-32.9,26.5-47.3c17.9-13.5,24.7-20.3,24.7-34.1c0-11.8-10.6-26.2-35.3-26.2c-24.1,0-35.3,17.1-36.5,40H1768.4z
			 M1828,480c11.8,0,21.2-9.4,21.2-20.9s-9.1-21.2-21.2-21.2c-11.8,0-20.9,9.4-20.9,21.2C1807.2,470.6,1816.3,480,1828,480z"/>
	</g>
	<g>
		<path class="st8" d="M453.3,644c0-43.2,31.4-78.1,73.4-78.1h0.3c42,0,73.4,34.9,73.4,78.1S569,722.2,527,722.2h-0.3
			C484.7,722.2,453.3,687.2,453.3,644z M527,695.8c27.5,0,47.1-23.1,47.1-51.8c0-27.8-19.5-51.8-47.1-51.8h-0.3
			c-27.5,0.3-47.1,23.1-47.1,51.8c0,28.7,19.5,51.8,47.1,51.8H527z"/>
		<path class="st8" d="M759.3,629.5v90.9h-26.3v-90.9c0-20.7-16.9-37.9-37.6-37.9c-21,0-37.9,17.5-37.9,37.9v90.9h-26.3V507.2h26.3
			v84.1c11.8-16.3,29.6-25.5,48.8-25.5C735.3,565.9,759.3,590.4,759.3,629.5z"/>
	</g>
	<g>
		<path class="st8" d="M1351.1,720.4h-26.3v-23.7c-12.1,16.3-29.9,25.5-48.8,25.5c-29,0-53-24.9-53-63.6v-90.9h26.3v90.9
			c0,20.7,16.9,37.9,37.6,37.9c21,0,37.9-17.5,37.9-37.9v-90.9h26.3V720.4z"/>
		<path class="st8" d="M1425.2,523.5c0,11.2-8.9,20.1-20.1,20.1s-20.1-8.9-20.1-20.1s8.9-20.1,20.1-20.1S1425.2,512.3,1425.2,523.5z
			 M1417.8,720.4h-26.3V567.6h26.3V720.4z"/>
		<path class="st8" d="M1561.7,523.5c0,11.2-8.9,20.1-20.1,20.1s-20.1-8.9-20.1-20.1s8.9-20.1,20.1-20.1S1561.7,512.3,1561.7,523.5z
			 M1554.3,720.4H1528V567.6h26.3V720.4z"/>
		<path class="st8" d="M1597.5,701.1c0-11.8,9.2-21,21-21c11.8,0,21,9.2,21,21s-9.5,21-21,21C1607,722.2,1597.5,712.7,1597.5,701.1z
			 M1628.3,646.4h-19.8l-6.2-139.1h32.6L1628.3,646.4z"/>
	</g>
	<path class="st8" d="M1127.1,886.4h-19.8l-6.2-139.1h32.6L1127.1,886.4z"/>
	<path class="st8" d="M280.3,644c0-43.2,31.4-78.1,73.4-78.1h0.3c42,0,73.4,34.9,73.4,78.1S396,722.2,354,722.2h-0.3
		C311.7,722.2,280.3,687.2,280.3,644z M354,695.8c27.5,0,47.1-23.1,47.1-51.8c0-27.8-19.5-51.8-47.1-51.8h-0.3
		c-27.5,0.3-47.1,23.1-47.1,51.8c0,28.7,19.5,51.8,47.1,51.8H354z"/>
	<path class="st8" d="M1049.3,644c0-43.2,31.4-78.1,73.4-78.1h0.3c42,0,73.4,34.9,73.4,78.1s-31.4,78.1-73.4,78.1h-0.3
		C1080.7,722.2,1049.3,687.2,1049.3,644z M1123,695.8c27.5,0,47.1-23.1,47.1-51.8c0-27.8-19.5-51.8-47.1-51.8h-0.3
		c-27.5,0.3-47.1,23.1-47.1,51.8c0,28.7,19.5,51.8,47.1,51.8H1123z"/>
	<path class="st8" d="M1493.2,523.5c0,11.2-8.9,20.1-20.1,20.1s-20.1-8.9-20.1-20.1s8.9-20.1,20.1-20.1S1493.2,512.3,1493.2,523.5z
		 M1485.8,720.4h-26.3V567.6h26.3V720.4z"/>
	<path class="st8" d="M659,960h21.8C615.3,959.9,562,906.8,562,841.5c0-65.9,53.4-119.5,119-119.5h440.6c65.6,0,119,53.6,119,119.5
		c0,65.3-53.3,118.5-118.8,118.5h21.8c56.3-10.3,99-59.6,99-118.5c0-67-54.3-121.4-121-121.4H681c-66.7,0-121,54.5-121,121.4
		C560,900.4,602.8,949.7,659,960z"/>
	<path class="st8" d="M714.1,938.2c-8.5,0-15.9-2.9-21.2-7.6c-6.2-5-9.7-12.3-9.7-19.7h-24.7c0,19.3,13.3,42.3,39.5,49.2h33.6
		c23.5-5.7,37.2-23,37.2-43.9c0-21.5-14.1-37.6-43.5-44.1l-17.6-3.8c-13.2-2.9-19.7-8.2-19.7-18.8c0-10.9,10.6-18.8,25.9-18.8
		c7.6,0,13.8,2.6,18.2,6.8c5.3,4.7,7.9,11.2,7.9,17.3h25.3c0-22.1-19.4-47.6-51.2-47.9c-31.2-0.3-52,19.7-52,42.9
		c0,25.6,17.9,36.5,36.8,40.9l16.5,3.8c19.1,4.4,27.6,9.7,27.6,22.1C742.9,928.5,732.3,938.2,714.1,938.2z"/>
	<path class="st8" d="M1108.2,960h18.4c6.9-3.4,11.7-10.4,11.7-18.9c0-11.8-9.2-21-21-21c-11.8,0-21,9.2-21,21
		C1096.3,949.4,1101.2,956.6,1108.2,960z"/>
	<g>
		<polygon class="st8" points="1055.9,789.9 1032,747.2 995.6,747.2 1028.7,789.9 		"/>
		<rect x="1030.2" y="807.6" class="st8" width="26.3" height="152.4"/>
	</g>
	<g>
		<rect x="954.6" y="807.6" class="st8" width="26.3" height="152.4"/>
		<polygon class="st8" points="980.4,789.9 956.4,747.2 920,747.2 953.1,789.9 		"/>
	</g>
	<g>
		<rect x="879.1" y="807.6" class="st8" width="26.3" height="152.4"/>
		<polygon class="st8" points="904.8,789.9 880.8,747.2 844.4,747.2 877.6,789.9 		"/>
	</g>
	<g>
		<rect x="803.5" y="807.6" class="st8" width="26.3" height="152.4"/>
		<polygon class="st8" points="829.2,789.9 805.3,747.2 768.9,747.2 802,789.9 		"/>
	</g>
</g>
<g id="Ebene_4">
</g>
<g id="Ebene_8" class="st9">
	<rect x="338" y="22.6" class="st10" width="1865" height="248.4"/>
	<text transform="matrix(1 0 0 1 338 234.2319)" class="st11 st12 st13">Waiting for</text>
	<rect x="34" y="267.6" class="st10" width="2941" height="232.4"/>
	<text transform="matrix(1 0 0 1 34 479.2319)" class="st11"><tspan x="0" y="0" class="st12 st13 st14">the winners..</tspan><tspan x="1661.4" y="0" class="st12 st13 st15">.</tspan><tspan x="1704.6" y="0" class="st12 st13 st14">?</tspan></text>
	<rect x="249.3" y="508.6" class="st10" width="770.7" height="232.4"/>
	<text transform="matrix(1 0 0 1 249.2891 720.2324)" class="st11"><tspan x="0" y="0" class="st12 st13 st14">o</tspan><tspan x="167.9" y="0" class="st12 st13 st16">o</tspan><tspan x="333.4" y="0" class="st12 st13">h!</tspan></text>
	<rect x="1009.3" y="507.6" class="st10" width="770.7" height="232.4"/>
	<text transform="matrix(1 0 0 1 1009.2891 719.2324)" class="st11 st12 st13">ouiii!</text>
	<rect x="659.3" y="746.6" class="st10" width="770.7" height="232.4"/>
	<text transform="matrix(1 0 0 1 659.2891 958.2324)" class="st11"><tspan x="0" y="0" class="st12 st13">s</tspan><tspan x="132.6" y="0" class="st12 st13 st17">ììì</tspan><tspan x="351.3" y="0" class="st12 st13">ì!</tspan></text>
</g>
<g id="Ebene_5">
</g>
</svg>
