<?xml version="1.0" encoding="utf-8"?>
<!-- Generator: Adobe Illustrator 25.4.1, SVG Export Plug-In . SVG Version: 6.00 Build 0)  -->
<svg version="1.1" xmlns="http://www.w3.org/2000/svg" xmlns:xlink="http://www.w3.org/1999/xlink" x="0px" y="0px"
	 viewBox="0 0 1920 960" style="enable-background:new 0 0 1920 960;" xml:space="preserve">
<style type="text/css">
	.st0{display:none;}
	.st1{fill:url(#SVGID_1_);}
	.st2{fill:url(#SVGID_00000139284460622108556040000005950812917163111355_);}
	.st3{fill:#230032;}
	.st4{fill:url(#SVGID_00000026850246888182210930000003293487582684522376_);}
	.st5{fill:url(#SVGID_00000150825224393208776760000007489566917786374045_);}
	.st6{fill:url(#SVGID_00000040556232213759373620000010217555247070626735_);}
</style>
<g id="Ebene_8" class="st0">
</g>
<g id="Ebene_8_Kopie">
</g>
<g id="Ebene_3">
	<linearGradient id="SVGID_1_" gradientUnits="userSpaceOnUse" x1="415.3979" y1="129.1487" x2="1654.0293" y2="129.1487">
		<stop  offset="0" style="stop-color:#230032"/>
		<stop  offset="0.9631" style="stop-color:#230032;stop-opacity:0"/>
	</linearGradient>
	<path class="st1" d="M1568.7,77.9L1568.7,77.9c4.7-21.7,15.2-40.7,29.4-55.7L999.5,0H423.3l-7.9,212.5l1237.1,45.8l1.6-42.3
		C1593.3,200.5,1555.4,139.6,1568.7,77.9z"/>
	
		<linearGradient id="SVGID_00000132089914689591297770000010389600489151643047_" gradientUnits="userSpaceOnUse" x1="1575.6348" y1="836.5842" x2="1855.9692" y2="836.5842">
		<stop  offset="0" style="stop-color:#230032"/>
		<stop  offset="0.8923" style="stop-color:#230032;stop-opacity:0"/>
	</linearGradient>
	<polygon style="fill:url(#SVGID_00000132089914689591297770000010389600489151643047_);" points="1830.1,960 1856,743.3 
		1603.4,713.2 1575.6,945.5 1697.3,960 	"/>
	<g>
		<path class="st3" d="M1596.2,773.5l-397.5,184.1c-1.9,0.9-3.8,1.7-5.7,2.4h9.9l392.7-181.8L1596.2,773.5z"/>
		<path class="st3" d="M1097.9,960h9.9c-27.4-10.9-49.3-31.6-61.7-58.5c-26.6-57.5-1.5-126,56-152.6l548.2-254l-7.6-0.9
			l-542.3,251.3c-59.5,27.6-85.5,98.4-58,158C1054,928.2,1073.4,948,1097.9,960z"/>
	</g>
	
		<linearGradient id="SVGID_00000043415523023891750140000009091963810935505570_" gradientUnits="userSpaceOnUse" x1="45.7871" y1="798.1763" x2="1096.8896" y2="798.1763">
		<stop  offset="3.337697e-02" style="stop-color:#230032;stop-opacity:0"/>
		<stop  offset="1" style="stop-color:#230032"/>
	</linearGradient>
	<path style="fill:url(#SVGID_00000043415523023891750140000009091963810935505570_);" d="M237.1,960l796.6-83
		c-10.5-51.6,14.5-105.5,63.1-130l-11.5-110.6L45.8,744.7L68.2,960H237.1z"/>
	<path class="st3" d="M365.2,762.8c1.1,10.3-6.2,19.3-16.5,20.4c-10.3,1.1-19.3-6.2-20.4-16.5c-1.1-10.3,6.2-19.3,16.5-20.4
		C355.2,745.2,364.1,752.5,365.2,762.8z M377.4,945.2l-24.1,2.5l-14.8-141.3l24.1-2.5L377.4,945.2z"/>
	<path class="st3" d="M524.9,843.7l8.7,85.3l-24.1,2.5l-8.7-84.8c-2-19-19.1-33.1-38-31.1c-19.2,2-33,19.6-31.1,38.3l8.9,84.8
		l-24.1,2.5l-14.8-141.4l24.1-2.5l2.3,21.7c9.3-16,25.2-26.2,42.6-28C497.2,788.2,521.4,809.8,524.9,843.7z"/>
	<path class="st3" d="M677,827.9l8.9,85.3l-24.1,2.5l-8.9-84.8c-2-19-19.1-33.1-38-31.1c-19.2,2-33,19.6-31.1,38.3l8.9,84.8
		l-24.1,2.5L553.8,784l24.1-2.5l2.3,21.7c9.3-16,25.2-26.2,42.6-28C649.3,772.4,673.5,794,677,827.9z"/>
	<path class="st3" d="M777,880.5c22.8-2.4,32.8-19,34.2-26.6l25.2-2.6c-0.4,11.8-14.5,47.8-57,52.3c-40.4,4.2-70.8-24.1-75-64.5
		c-4.2-39.9,20.5-74.5,59-78.5c38-4,68.6,24.9,72.6,62.6c0.4,3.5,0.5,7.1,0.5,10.1L730,844.3C734.9,867.6,751.6,883.1,777,880.5z
		 M728.4,824.4l82.1-8.6c-5.7-20.2-22-34.7-44.8-32.3C743.6,785.8,730.3,802.9,728.4,824.4z"/>
	<path class="st3" d="M926.7,744.3l2.5,23.6c-2-0.3-10.1,0.2-13.1,0.5c-19.5,2-35.1,16-32.2,43.4l8.5,79.7l-24.1,2.5l-15-141.2
		l24.1-2.5l2.1,19.8c6.8-13.6,17.8-23.5,33.6-25.1C919,744.3,924,744.3,926.7,744.3z"/>
	<path class="st3" d="M1039,811.4c-7.4-8-19-13.4-35.1-15.2l-16.6-1.8c-12.5-1.4-19-5.7-20-15.5c-1-10,8-18.4,22-19.8
		c7-0.7,13,1.1,17.5,4.5c5.3,3.8,8.4,9.5,9,15.2l23.3-2.4c-2.1-20.3-22.5-42.1-51.8-39.3c-28.8,2.7-46.1,23.2-43.9,44.6
		c2.5,23.6,20,31.9,37.8,34.2l15.6,1.9c18,2.2,26.4,6.3,27.6,17.7c1.2,11.1-7.7,21.1-24.5,22.8c-7.9,0.8-14.9-1.2-20.3-5
		c-6.2-4-10.1-10.5-10.8-17.2l-22.8,2.4c2.2,21.1,22.3,45.4,56.2,41.8c12.4-1.3,22.6-5.3,30.2-11.1
		C1029.8,849.4,1032.2,829.6,1039,811.4z"/>
	<path class="st3" d="M98.4,650.7c-2,0-4-0.1-6-0.3l-0.3,0c-18-2.2-33.2-11.4-43.2-26.1l-2.6,20.9l-28.1-3.3l24-200.7l28.1,3.3
		l-8.9,74.7c13.3-12.3,30.2-17.8,48.2-15.7l0.3,0c34.2,4.1,58.1,40.4,53.3,80.8l0,0c-2.4,19.7-11,37.4-24.4,49.8
		C127,644.9,112.9,650.7,98.4,650.7z M46.3,612l3,5.3c9.2,16.5,24.6,26.8,43.2,29l0.3,0c15.4,1.7,30.7-3.7,43.2-15.2
		c12.7-11.8,20.9-28.5,23.2-47.3c4.6-38.3-17.8-72.6-49.8-76.4l-0.3,0c-18.6-2.2-36,4.4-48.9,18.6l-4.2,4.6l9.9-82.7l-20.1-2.4
		L22.7,638.2l20.1,2.4L46.3,612z M93.3,626.3c-1.7,0-3.4-0.1-5.2-0.3l-0.3,0c-25.1-3-40.1-25.6-36.6-55c1.6-13.8,7.1-25.8,15.4-33.8
		c8.9-8.6,20.3-12.3,33.1-10.8l0.3,0c26.1,3.1,42.5,26.2,39.1,55l0,0C135.9,608.2,117,626.3,93.3,626.3z M94.2,530.1
		c-9.5,0-18,3.4-24.8,10c-7.6,7.4-12.7,18.5-14.2,31.4c-3.3,27.5,10,47.8,33.1,50.5l0.3,0c23.8,2.6,43.4-14.7,46.5-41l0,0
		c3.2-26.5-11.8-47.7-35.6-50.5l-0.3,0C97.5,530.2,95.8,530.1,94.2,530.1z"/>
	<path class="st3" d="M204.1,663.9l-28.1-3.3l17.4-145.5l28.1,3.3l-1.9,15.5c10.3-10.2,22.5-14.7,35.8-13.1c5.6,0.7,10.2,1.7,13,2.3
		l2.4,0.5l-3.3,28l-2.4-1c-1.3-0.6-8.5-1.8-12.4-2.2c-9.7-1.2-18.4,0.9-25.1,6.1c-7.5,5.7-12.2,15.2-13.6,27.4L204.1,663.9z
		 M180.5,657.1l20.1,2.4l9.4-78.1c1.6-13.3,6.8-23.7,15.2-30.1c7.5-5.8,17.2-8.2,28-6.9c1.8,0.2,7.4,1,10.9,1.8l2.3-19.4
		c-2.7-0.6-6.8-1.4-11.5-2c-17.3-2.1-29.4,7.8-36.5,16.4l-4.3,5.3l2.9-24.6l-20.1-2.4L180.5,657.1z"/>
	<path class="st3" d="M390.3,686.2l-28.1-3.4l0.2-2c1.1-8.7,1.8-14.9,2.4-19.5c-12.9,12.6-29.8,18.1-49.3,15.7l-0.3,0
		c-34.2-4.1-57.1-39.5-52.2-80.7c2.4-19.8,10.8-37.5,23.9-49.9c13.1-12.4,29.4-18.2,45.9-16.3l0.3,0c19.5,2.3,34.6,11.6,44.2,26.9
		l2.4-19.7l28.1,3.3l-14.5,121.9L390.3,686.2z M366.7,679.3l20.1,2.4l2.5-20.2l14-117.4l-20.1-2.4l-3.4,28.5l-3-6
		c-8.6-17.3-23.9-27.7-44.1-30.2l-0.3,0c-15.3-1.8-30.4,3.6-42.6,15.2c-12.4,11.8-20.4,28.6-22.7,47.5c-4.6,39,16.8,72.5,48.7,76.3
		l0.3,0c20.3,2.4,37.5-4.1,50-18.9l4.3-5.1l-0.8,7C369,660.6,368.1,667.6,366.7,679.3z M331.5,654.7c-1.6,0-3.3-0.1-4.9-0.3l-0.3,0
		c-13.5-1.6-24.3-7.8-31.3-18c-6.8-9.9-9.5-22.8-7.8-37.3c1.7-14.3,7.3-26.1,16.2-34.2c9.2-8.4,21.3-12,34.8-10.3l0.3,0
		c24.7,2.9,40.1,26.1,36.6,55c-1.6,13.6-7.3,25.6-15.9,33.9C351.4,650.8,341.7,654.7,331.5,654.7z M332,558.2
		c-10,0-18.9,3.3-25.9,9.7c-8.2,7.4-13.3,18.4-14.9,31.7c-1.6,13.5,0.8,25.4,7.1,34.5c6.3,9.2,16.2,14.8,28.5,16.3l0.3,0
		c10.9,1.3,21.3-2.2,29.4-9.9c8-7.6,13.2-18.8,14.7-31.4l0,0c3.2-26.6-10.8-47.9-33.1-50.5l-0.3,0
		C335.8,558.4,333.8,558.2,332,558.2z"/>
	<path class="st3" d="M488.8,697.9l-27.9-3.3l-40.8-152.4l30,3.6l0.3,1.3l29.1,108.6l54.5-99.9l30,3.6L488.8,697.9z M464.1,690.9
		l22.5,2.7l71.1-131l-21.4-2.6l-58,106.3l-31.3-117l-21.4-2.6L464.1,690.9z"/>
	<path class="st3" d="M592.5,668.3c-6.5-9.3-9.2-21.2-7.7-33.6c3.1-25.6,23-43,46.5-40.5l0.3,0c11.4,1.4,21.3,7.4,27.9,17
		c6.5,9.4,9.2,21.2,7.8,33.3c-2.2,18.7-13.3,32.9-28,38.4l10.9-1.1c11.2-7.7,19.2-20.7,21.1-36.8c1.6-13-1.4-25.8-8.5-36
		c-7.3-10.6-18.2-17.2-30.7-18.7l-0.3,0c-25.7-2.8-47.6,16.1-50.9,44c-1.6,13.3,1.4,26.3,8.4,36.3c4.9,7.1,11.6,12.4,19.4,15.5
		l11.3-1.2C608.7,683.4,599,677.5,592.5,668.3z"/>
	<path class="st3" d="M578.5,689.2c-13.4-14.4-20.5-35.1-17.8-57.4c4.6-39,36.9-66.1,73.4-61.7l0.3,0c36.5,4.4,61.5,38.3,56.8,77.2
		c-1.4,11.6-5.3,22.2-11,31.2l5-0.5c5.1-8.9,8.6-19.1,9.9-30.2c4.9-41.2-21.6-77.1-60.3-81.7l-0.3,0c-38.7-4.6-73,24-77.9,65.2
		c-2.7,22.4,4,43.3,16.9,58.4L578.5,689.2z"/>
	<path class="st3" d="M815.2,617.1c-2.1,17.9-8.3,34.7-17.9,49.3l5.1-0.5c8.9-14.5,14.7-30.9,16.8-48.3
		c7.8-65.1-38.9-124.5-104-132.2l-368.5-44l-13.3,2.4l381.3,45.5C777.7,496.8,822.8,554.1,815.2,617.1z"/>
	<g>
		<g>
			<polygon class="st3" points="669.6,268 518.6,268 519.4,272 655.7,272 			"/>
		</g>
		<g>
			<path class="st3" d="M592,305h-66.6l0.7,4h61.9C589.4,307.6,590.7,306.3,592,305z"/>
		</g>
		<g>
			<path class="st3" d="M566.3,342h-34l0.7,4h31.6C565.1,344.7,565.7,343.3,566.3,342z"/>
		</g>
	</g>
	<g>
		<g>
			<polygon class="st3" points="1523.9,549 1311.7,549 1310.7,553 1515.3,553 			"/>
		</g>
		<g>
			<polygon class="st3" points="1444.1,586 1302.6,586 1301.6,590 1435.4,590 			"/>
		</g>
		<g>
			<polygon class="st3" points="1364.2,623 1293.5,623 1292.5,627 1355.6,627 			"/>
		</g>
	</g>
	
		<linearGradient id="SVGID_00000070104674893534943180000001195276435328722353_" gradientUnits="userSpaceOnUse" x1="822.2266" y1="460.9406" x2="1336.8911" y2="460.9406">
		<stop  offset="5.202881e-02" style="stop-color:#230032;stop-opacity:0"/>
		<stop  offset="1" style="stop-color:#230032"/>
	</linearGradient>
	<path style="fill:url(#SVGID_00000070104674893534943180000001195276435328722353_);" d="M1310.6,421.7c-7.3-9.2-13-19.3-17.3-30
		L878,289.7l-55.8,227.2l469,115.2l45.6-185.8C1327.1,439.6,1318.2,431.4,1310.6,421.7z"/>
	<path class="st3" d="M1108.6,499.5l-20,82.8l-23.6-5.8l20-82.8c4.6-18.5-6.8-37.6-25.3-42.1c-18.8-4.6-37.7,7.3-42.2,25.6
		l-20.1,82.7l-23.6-5.8l47-192l23.6,5.8l-18.5,75.2c14.2-12,32.1-16.3,49.3-12C1101.1,437.3,1117.2,464.6,1108.6,499.5z"/>
	<path class="st3" d="M957.4,519.9l-5.5,22.2c-3.8,0.5-13.7,3.4-23.5,1c-22-5.4-35.9-24-30.1-47.8l19.6-79.7l-23.3-5.7l5-20.4
		l23.3,5.7l9.4-38.4l23.6,5.8l-9.4,38.4l37.6,9.2l-5,20.4l-37.6-9.2L922,500.3c-3,12.2,3.9,18.4,14.2,20.9
		C945,523.3,954.8,521,957.4,519.9z"/>
	<path class="st3" d="M1185.1,582.3c22.2,5.5,37.3-6.8,41.2-13.5l24.6,6c-4.4,11-29.8,40.1-71.3,29.9c-39.4-9.7-58.4-46.6-48.8-86.1
		c9.6-38.9,44.4-63.2,82-54c37.1,9.1,56.2,46.6,47.2,83.4c-0.8,3.4-2,6.8-2.9,9.7l-104-25.5C1149.7,555.9,1160.2,576.2,1185.1,582.3
		z M1158.3,513.1l80.2,19.7c1.5-21-9-40.1-31.2-45.6C1185.6,481.9,1167.3,493.5,1158.3,513.1z"/>
	<path class="st3" d="M1435.4,471c-2.7,0-5.5-0.2-8.3-0.5l-0.3,0c-38.8-4.6-65.3-40.5-60.3-81.7c2.4-19.8,11.5-37.4,25.9-49.5
		c14.5-12.4,33-17.9,52-15.6l0.3,0c38.8,4.6,65.3,40.5,60.3,81.7c-2.4,19.8-11.5,37.4-25.9,49.5C1466.7,465.4,1451.4,471,1435.4,471
		z M1436.1,327.1c-15.1,0-29.5,5.3-41.1,15.2c-13.6,11.5-22.3,28.2-24.5,47c-4.7,39,20.3,72.9,56.8,77.2l0.3,0
		c17.9,2.1,35.3-3.1,48.9-14.7c13.6-11.5,22.3-28.2,24.5-47c4.7-39-20.3-72.9-56.8-77.2l-0.3,0
		C1441.3,327.3,1438.7,327.1,1436.1,327.1z M1435.4,446.7c-1.8,0-3.6-0.1-5.4-0.3l-0.3,0c-25.7-3.1-42.5-26.6-39.1-54.7
		c3.3-27.9,25.2-46.8,50.9-44l0.3,0c12.5,1.5,23.4,8.1,30.7,18.7c7,10.2,10,23,8.5,36c-1.6,13.3-7.5,25.2-16.7,33.3
		C1456.1,442.9,1446,446.7,1435.4,446.7z M1436.5,351.4c-21.4,0-39.1,16.8-41.9,40.7c-3.1,25.9,12.2,47.5,35.6,50.3l0.3,0
		c11.5,1.4,22.5-2.1,31-9.7c8.5-7.5,13.9-18.5,15.4-30.8c1.4-12.1-1.3-23.9-7.8-33.3c-6.6-9.6-16.5-15.6-27.9-17l-0.3,0
		C1439.5,351.5,1438,351.4,1436.5,351.4z"/>
	<path class="st3" d="M1546.6,485l-28.1-3.3l23.9-200.7l28.1,3.3L1546.6,485z M1523,478.1l20.1,2.4l23-192.7l-20.1-2.4L1523,478.1z"
		/>
	<path class="st3" d="M1647.4,496.3c-3,0-6-0.2-9.2-0.6c-40.2-4.8-65.7-39.2-60.6-81.7c2.4-19.9,11.4-37.6,25.5-49.7
		c14.3-12.3,32.6-17.9,51.6-15.6c18.6,2.2,34.9,11.8,45.8,26.9c10.6,14.8,15.2,33.4,12.9,52.4c-0.4,3.7-1.2,7.3-1.8,10.1l-0.4,1.8
		l-105.9-12.6c0.4,23.4,13.8,38.8,36.2,41.5c21.4,2.6,34.3-10.5,37.2-17.2l0.6-1.4l28.9,3.5l-0.6,2.2
		C1704.5,467.4,1684.9,496.3,1647.4,496.3z M1646.4,352.2c-15,0-29.2,5.2-40.7,15.1c-13.3,11.5-21.8,28.2-24.1,47.1
		c-2.3,19.3,2,37.6,12.1,51.7c10.5,14.5,26,23.4,45,25.6c22.3,2.7,37.8-5.4,46.9-12.6c10-7.9,15.3-17,17.3-22.1l-21.3-2.5
		c-4.3,7.9-18.4,20.9-40.7,18.2l0,0c-24.9-3-40.1-21.3-39.7-47.7l0-2.2l106.7,12.7c0.5-2.4,1-5.2,1.3-8c2.1-18-2.2-35.6-12.2-49.5
		c-10.2-14.2-25.5-23.2-43-25.3C1651.6,352.4,1649,352.2,1646.4,352.2z M1690.3,417.4l-86.8-10.4l0.7-2.3c7.3-23,25.6-35.6,47.6-33
		c22,2.6,37.1,19.6,38.3,43.3L1690.3,417.4z M1608.9,403.6l77.1,9.2c-1.9-20.7-15-34.8-34.6-37.2
		C1632.2,373.4,1616,384,1608.9,403.6z M1669.6,339.7l-29.3-3.5l29.3-40.1l38.5,4.6L1669.6,339.7z M1647.6,333l20.5,2.5l31.4-31.8
		l-28.1-3.3L1647.6,333z"/>
	<path class="st3" d="M1797.6,514.2c-3,0-6-0.2-9.2-0.6c-19.8-2.4-36.8-12-47.7-27.2c-10.7-14.8-15.3-34.2-12.9-54.5
		c2.4-19.9,11.4-37.6,25.5-49.7c14.3-12.3,32.6-17.9,51.6-15.6c18.6,2.2,34.9,11.8,45.8,26.9c10.6,14.8,15.2,33.4,12.9,52.4
		c-0.4,3.7-1.2,7.3-1.8,10.1l-0.4,1.8l-105.9-12.6c0.4,23.4,13.8,38.8,36.2,41.5c21.4,2.6,34.3-10.5,37.2-17.2l0.6-1.4l28.9,3.5
		l-0.6,2.2C1854.7,485.3,1835.1,514.2,1797.6,514.2z M1796.6,370.1c-15,0-29.2,5.2-40.7,15.1c-13.3,11.5-21.8,28.2-24.1,47.1
		c-2.3,19.3,2,37.6,12.1,51.7c10.5,14.5,26,23.4,45,25.6c22.3,2.7,37.8-5.4,46.9-12.6c10-7.9,15.3-17,17.3-22.1l-21.3-2.5
		c-4.3,7.9-18.4,20.9-40.7,18.2l0,0c-24.9-3-40.1-21.3-39.7-47.7l0-2.2l106.7,12.7c0.5-2.4,1-5.2,1.3-8c2.1-18-2.2-35.6-12.2-49.5
		c-10.2-14.2-25.5-23.2-43-25.3C1801.8,370.3,1799.2,370.1,1796.6,370.1z M1840.5,435.3l-86.8-10.4l0.7-2.3
		c7.3-23,25.6-35.6,47.6-33c22,2.6,37.1,19.6,38.3,43.3L1840.5,435.3z M1759.1,421.6l77.1,9.2c-1.9-20.7-15-34.8-34.6-37.2
		C1782.4,391.3,1766.3,402,1759.1,421.6z M1819.8,357.6l-29.3-3.5l29.3-40.1l38.5,4.6L1819.8,357.6z M1797.8,351l20.5,2.5l31.4-31.8
		l-28.1-3.4L1797.8,351z"/>
	<path class="st3" d="M1221.5,946.5c-4.1,0-8.2-0.6-12-1.8c-10.6-3.4-18.9-11.1-24-22.3l-33.6-72.6l-21.8,10.1l-10.5-22.7l21.8-10.1
		l-16.6-35.9l25.6-11.9l16.6,35.9L1202,799l10.5,22.7l-35.1,16.3l33.3,71.9c2.2,4.8,5.3,7.6,9.1,8.6c3.5,0.8,7.6,0.1,12.4-2.1
		c7.6-3.5,13.6-11.1,14.8-13.3l1.9-3.5l11.9,25.7l-1,1c-0.5,0.5-1.1,1.2-1.8,2c-3.3,3.8-8.8,10.2-16.6,13.8
		C1234.8,945,1228,946.5,1221.5,946.5z M1153.7,844.5l35.3,76.3c4.7,10.1,12.2,17.1,21.6,20.1c9,2.9,19.3,2,29.1-2.5
		c7-3.3,12.2-9.2,15.2-12.8c0.4-0.4,0.7-0.8,1-1.2l-7.6-16.4c-2.9,3.7-8.1,9-14.5,12c-5.6,2.6-10.7,3.4-15,2.4
		c-5.1-1.2-9-4.8-11.8-10.8l-35-75.5l35.1-16.3l-7.1-15.4l-35.1,16.3l-16.6-35.9l-18.4,8.5l16.6,35.9l-21.8,10.1l7.1,15.4
		L1153.7,844.5z"/>
	<path class="st3" d="M1306.5,904.9c-27,0-53-16.3-65.9-44.2c-8.4-18.1-9.8-37.9-4-55.8c5.9-18.1,18.7-32.6,36.1-40.6l0.2-0.1
		c17.4-8,36.6-8.4,54.2-1.2c17.3,7.2,31.4,21.1,39.8,39.2c8.4,18.1,9.8,37.9,4.1,55.7c-5.8,18.1-18.6,32.5-35.9,40.6l-0.2,0.1
		C1325.6,902.9,1316,904.9,1306.5,904.9z M1244.3,859.1c16.5,35.6,55.5,51.4,88.9,35.9l0.2-0.1c16.3-7.6,28.3-21.1,33.8-38.1
		c5.4-16.9,4-35.6-3.9-52.8c-8-17.2-21.3-30.4-37.7-37.1c-16.5-6.8-34.6-6.5-51,1.1l-0.2,0.1c-16.3,7.6-28.4,21.1-33.9,38.2
		C1235,823.2,1236.3,841.9,1244.3,859.1L1244.3,859.1z M1306.2,880.8c-17.8,0-34.7-11.1-43.6-30.2c-11.8-25.5-3.1-53,20.2-64.1
		l0.3-0.1c23.1-10.7,50.3,0.8,62,26c11.9,25.7,3.2,53.3-20.3,64.2l-0.2,0.1C1318.6,879.4,1312.4,880.8,1306.2,880.8z M1301.2,786.3
		c-5.5,0-11,1.2-16.3,3.6l-0.2,0.1c-21.3,10.1-29.2,35.4-18.3,58.8c10.9,23.6,35.3,34,56.7,24.1l0.2-0.1
		c21.4-9.9,29.3-35.2,18.3-58.8C1333.5,796.6,1317.5,786.3,1301.2,786.3z M1234.1,769c-2.3,0-4.6-0.5-6.8-1.4c-5-1.6-8.7-5-11-10
		c-2.2-4.7-2.3-9.4-0.4-14.6c1.8-4.8,5.2-8.4,9.9-10.6c4.7-2.2,9.7-2.4,14.5-0.7c5.1,2.1,8.5,5.3,10.6,9.9c2.2,4.7,2.4,9.6,0.8,14.6
		c-1.6,5-4.9,8.7-9.8,10.9C1239.3,768.4,1236.7,769,1234.1,769z M1233.8,734.6c-2.1,0-4.2,0.5-6.4,1.5c-3.8,1.7-6.4,4.6-7.8,8.4
		c-1.5,4.2-1.5,7.8,0.3,11.5c1.9,4,4.7,6.6,8.7,7.9l0.1,0.1c3.8,1.6,7.6,1.5,11.5-0.3c3.8-1.8,6.4-4.6,7.6-8.5
		c1.3-4.1,1.1-8-0.6-11.7c-1.7-3.7-4.4-6.1-8.4-7.8C1237.1,734.9,1235.5,734.6,1233.8,734.6z M1286.5,744.7c-2.3,0-4.6-0.5-6.8-1.4
		c-5-1.6-8.7-5-11-10c-2.2-4.7-2.3-9.4-0.4-14.6c1.8-4.8,5.2-8.4,9.9-10.6c4.7-2.2,9.6-2.4,14.6-0.8l0.2,0.1c5,2.1,8.4,5.3,10.5,9.8
		c2.3,4.9,2.5,9.9,0.8,14.7c-1.9,5.1-5.2,8.8-10,11C1291.7,744.1,1289.1,744.7,1286.5,744.7z M1286.4,710.3c-2.2,0-4.4,0.5-6.5,1.5
		c-3.8,1.7-6.4,4.6-7.8,8.4c-1.5,4.2-1.5,7.8,0.3,11.5c1.9,4,4.7,6.6,8.7,7.9l0.2,0.1c3.8,1.6,7.6,1.5,11.5-0.3
		c3.8-1.8,6.4-4.6,7.9-8.7c1.4-3.9,1.2-7.7-0.6-11.7c-1.7-3.6-4.3-6.1-8.4-7.8C1289.8,710.5,1288,710.3,1286.4,710.3z"/>
	<path class="st3" d="M1418.1,860.3l-61.5-133l25.6-11.9l6.6,14.2c3.4-14.1,11.5-24.3,23.6-30c5.1-2.4,9.6-3.9,12.3-4.9l2.3-0.8
		l11.8,25.6l-2.6,0.4c-1.4,0.2-8.2,3-11.7,4.6c-23.1,10.7-23.1,32.2-15.4,48.8l34.6,75L1418.1,860.3z M1362,729.3l58.1,125.7
		l18.4-8.5l-33-71.4c-12.9-28,0.5-46.3,17.4-54.1c1.6-0.7,6.8-3,10.3-4.2L1425,699c-2.6,0.9-6.5,2.3-10.8,4.3
		c-15.9,7.3-21,22.1-22.5,33.1l-0.9,6.8l-10.4-22.5L1362,729.3z"/>
	<path class="st3" d="M1524.2,804.1c-8.7,0-17.4-1.7-25.7-5.1c-17.4-7.1-31.6-21-39.9-39.1c-17.4-37.6-3.3-80,32.1-96.4l0.2-0.1
		c17.3-8,36.6-8.4,54.2-1.2c17.3,7.2,31.4,21.1,39.8,39.2c8.4,18.1,9.8,37.9,4.1,55.7c-5.8,18.1-18.6,32.5-35.9,40.6l-0.2,0.1
		C1543.6,802,1533.9,804.1,1524.2,804.1z M1519.3,661c-9.1,0-18.2,2-26.7,6l-0.2,0.1c-33.4,15.5-46.6,55.5-30.1,91
		c7.9,17.2,21.4,30.3,37.8,37.1c16.6,6.8,34.7,6.4,51.1-1.2l0.2-0.1c16.3-7.6,28.3-21.1,33.8-38.1c5.4-16.9,4-35.6-3.9-52.8
		c-8-17.2-21.3-30.4-37.7-37.1C1535.7,662.7,1527.5,661,1519.3,661z M1524.1,779.8c-5.9,0-11.7-1.2-17.3-3.7
		c-11.3-4.9-20.6-14.3-26.2-26.5c-11.8-25.5-3.1-53,20.2-64.1l0.3-0.1c11.4-5.3,24.2-5.4,35.9-0.2c11.3,5,20.6,14.3,26.1,26.2
		c11.9,25.7,3.2,53.3-20.3,64.2l0,0l-0.2,0.1C1536.6,778.5,1530.4,779.8,1524.1,779.8z M1519.1,685.4c-5.6,0-11.2,1.2-16.4,3.7
		l-0.2,0.1c-21.3,10.1-29.2,35.4-18.3,58.8c5.2,11.3,13.8,20,24.2,24.5c10.5,4.6,22,4.4,32.5-0.4l0.2-0.1
		c21.4-9.9,29.3-35.2,18.3-58.8c-5.1-11-13.7-19.7-24.1-24.3C1530.1,686.5,1524.6,685.4,1519.1,685.4z M1452,668.1
		c-2.3,0-4.6-0.5-6.8-1.4c-5-1.6-8.7-5-11-10c-2.2-4.7-2.3-9.4-0.4-14.6c1.8-4.8,5.2-8.4,9.9-10.6s9.7-2.4,14.5-0.7
		c5.1,2.1,8.5,5.3,10.6,9.9c2.2,4.7,2.4,9.6,0.8,14.6c-1.6,5-4.9,8.7-9.8,10.9C1457.2,667.5,1454.6,668.1,1452,668.1z M1451.7,633.7
		c-2.1,0-4.2,0.5-6.4,1.5c-3.8,1.7-6.4,4.6-7.8,8.4c-1.5,4.2-1.5,7.8,0.3,11.5c1.9,4,4.7,6.6,8.7,7.9l0.1,0.1
		c3.8,1.6,7.6,1.5,11.5-0.3c3.8-1.8,6.4-4.6,7.6-8.5c1.3-4.1,1.1-8-0.6-11.7c-1.7-3.7-4.4-6.1-8.4-7.8
		C1455,634,1453.4,633.7,1451.7,633.7z M1504.4,643.8c-2.3,0-4.6-0.5-6.8-1.4c-5-1.6-8.7-5-11-10c-2.2-4.7-2.3-9.4-0.4-14.6
		c1.8-4.8,5.2-8.4,9.9-10.6c4.7-2.2,9.6-2.4,14.6-0.8l0.2,0.1c5,2.1,8.4,5.3,10.5,9.8c2.3,4.9,2.5,9.9,0.8,14.7
		c-1.9,5.1-5.2,8.8-10,11C1509.6,643.2,1507,643.8,1504.4,643.8z M1504.3,609.3c-2.2,0-4.4,0.5-6.5,1.5c-3.8,1.7-6.4,4.6-7.8,8.4
		c-1.5,4.2-1.5,7.8,0.3,11.5c1.9,4,4.7,6.6,8.7,7.9l0.2,0.1c3.8,1.6,7.6,1.5,11.5-0.3c3.8-1.8,6.4-4.6,7.9-8.7
		c1.4-3.9,1.2-7.7-0.6-11.7c-1.7-3.6-4.3-6.1-8.4-7.8C1507.7,609.6,1506,609.3,1504.3,609.3z"/>
	<path class="st3" d="M1586.4,601.3c2.3,0.9,4.5,1.4,6.8,1.4c2.6,0,5.2-0.6,7.8-1.8c4.9-2.3,8.2-5.9,9.8-10.9
		c1.6-5.1,1.4-10-0.8-14.6c-2.1-4.6-5.6-7.8-10.6-9.9c-4.8-1.7-9.8-1.5-14.5,0.7c-4.7,2.2-8.1,5.8-9.9,10.6
		c-1.9,5.2-1.8,9.9,0.4,14.6C1577.7,596.3,1581.4,599.7,1586.4,601.3z M1578.8,578.1c1.4-3.8,4-6.6,7.8-8.4c2.1-1,4.2-1.5,6.4-1.5
		c1.7,0,3.3,0.3,5,0.9c4.1,1.7,6.8,4.2,8.4,7.8c1.7,3.8,1.9,7.6,0.6,11.7c-1.3,3.9-3.8,6.8-7.6,8.5s-7.7,1.9-11.5,0.3l-0.2-0.1
		c-4-1.3-6.8-3.9-8.7-7.9C1577.3,585.9,1577.2,582.3,1578.8,578.1z"/>
	<path class="st3" d="M1638.8,577c2.3,0.9,4.5,1.4,6.8,1.4c2.6,0,5.2-0.6,7.8-1.8c4.8-2.2,8.1-5.9,10-11c1.8-4.8,1.5-9.8-0.8-14.7
		c-2.1-4.6-5.6-7.8-10.5-9.8l-0.2-0.1c-5.1-1.6-10-1.4-14.6,0.8c-4.7,2.2-8.1,5.8-9.9,10.6c-1.9,5.2-1.8,9.9,0.4,14.6
		C1630.2,572,1633.9,575.4,1638.8,577z M1631.2,553.8c1.4-3.8,4-6.6,7.8-8.4c2.1-1,4.3-1.5,6.5-1.5c1.7,0,3.4,0.3,5.2,0.8
		c4,1.7,6.7,4.2,8.4,7.8c1.8,4,2.1,7.8,0.6,11.7c-1.5,4.1-4.1,7-7.9,8.7c-3.8,1.8-7.7,1.9-11.5,0.3l-0.2-0.1c-4-1.3-6.8-3.9-8.7-7.9
		C1629.7,561.6,1629.7,558,1631.2,553.8z"/>
	<path class="st3" d="M1642.3,620l-0.3,0.1c-23.3,11.1-32,38.7-20.2,64.1c8.8,19.1,25.8,30.2,43.6,30.2c6.2,0,12.4-1.3,18.5-4.1
		l0.2-0.1c23.5-10.9,32.2-38.4,20.3-64.2C1692.6,620.8,1665.4,609.3,1642.3,620z M1682.4,706.6l-0.2,0.1
		c-21.4,9.9-45.8-0.5-56.7-24.1c-10.8-23.4-3-48.7,18.3-58.8l0.3-0.1c5.3-2.5,10.8-3.6,16.3-3.6c16.3,0,32.3,10.3,40.4,27.7
		C1711.6,671.4,1703.8,696.7,1682.4,706.6z"/>
	<path class="st3" d="M1603.4,692.8c-16.5-35.6-3.2-75.6,30.1-91l0.2-0.1c8.6-4,17.7-6,26.7-6c8.2,0,16.4,1.6,24.2,4.9
		c16.4,6.8,29.8,20,37.7,37.1c8,17.2,9.3,35.9,3.9,52.8c-4.6,14.4-14,26.3-26.6,34.2l6.1,0.7c11.4-8.3,19.9-19.9,24.3-33.7
		c5.7-17.8,4.3-37.6-4.1-55.7c-8.4-18.1-22.5-32-39.8-39.2c-17.6-7.3-36.8-6.9-54.2,1.2l-0.2,0.1c-35.4,16.4-49.5,58.7-32.1,96.4
		c3.4,7.4,7.8,14,13,19.8l6.2,0.7C1612.6,708.8,1607.3,701.3,1603.4,692.8z"/>
	<path class="st3" d="M1708.8,725.8l65.5-30.3c59.5-27.6,85.5-98.4,58-158c-3.3-7.1-8.2-15.7-12.6-21.8l-5.4-0.6
		c5.2,6.8,10.7,16.2,14.4,24.1c26.6,57.5,1.5,126-56,152.6l-71.4,33L1708.8,725.8z"/>
	<g>
		<g>
			<path class="st3" d="M780.7,483c-3.6,0-7.1-0.9-10.4-2.7c-5-2.8-8.6-7.3-10.2-12.8c-1.6-5.6-1-11.4,1.8-16.3s7.3-8.5,12.9-10.1
				c5.6-1.6,11.4-1,16.3,1.8s8.5,7.3,10.1,12.9c1.6,5.6,0.9,11.4-1.9,16.3c-2.8,4.9-7.3,8.5-12.8,10.1
				C784.6,482.8,782.7,483,780.7,483z M780.9,444.3c-1.7,0-3.3,0.2-5,0.7c-4.6,1.3-8.3,4.2-10.5,8.2c-2.2,4-2.7,8.7-1.4,13.2v0
				c1.3,4.4,4.2,8.1,8.3,10.4c4.1,2.3,8.8,2.8,13.2,1.5c4.5-1.3,8.2-4.2,10.4-8.2c2.3-4,2.8-8.7,1.5-13.3c-1.3-4.6-4.2-8.3-8.2-10.5
				C786.6,445,783.8,444.3,780.9,444.3z M756.6,418.2l-42.1-125.4l32.8-9.4l30.5,128.7L756.6,418.2z M719.6,295.6l39.5,117.8l13.9-4
				l-28.6-120.9L719.6,295.6z"/>
			<g>
				<path class="st3" d="M698,469.6c-2.3,4.1-3,8.7-2.4,13.3l4.1,0.5c-0.9-4.1-0.3-8.3,1.7-11.9c2.2-4,5.9-6.9,10.5-8.2
					c1.7-0.5,3.3-0.7,5-0.7c2.9,0,5.7,0.7,8.2,2.1c4,2.2,6.9,5.9,8.2,10.5c1.3,4.5,0.8,9.2-1.5,13.3c0,0,0,0,0,0
					c1.3,0.4,2.6,0.7,3.9,1.1c2.4-4.8,3-10.2,1.4-15.5c-1.6-5.6-5.2-10.2-10.1-12.9c-4.9-2.7-10.7-3.3-16.3-1.8
					C705.3,461.1,700.7,464.7,698,469.6z"/>
				<path class="st3" d="M713.9,430.5l-30.5-128.7l-32.8,9.4l42.1,125.4L713.9,430.5z M680.5,306.8l28.6,120.9l-13.9,4l-39.5-117.8
					L680.5,306.8z"/>
			</g>
		</g>
		<g>
			<path class="st3" d="M735.7,249l-93.5,26.8C579.1,294,542.5,360,560.6,423c5.1,17.7,14,33.6,26,46.9l6.2,0.7
				c-13.2-13.5-23-30.1-28.3-48.8C547,361,582.4,297.2,643.3,279.7l93.5-26.8c10.5-3,21.2-4.5,31.9-4.5c19.2,0,38.3,4.9,55.6,14.5
				c21.1,11.7,37.7,29.4,47.9,50.7l1.5-5.9C847.9,259,790.7,233.3,735.7,249z"/>
			<path class="st3" d="M740.3,491.1c2.1,0.7,4.2,1.5,6.2,2.4l54.8-15.7c12.6-3.6,24.2-9.2,34.5-16.3l1.4-5.9
				c-11,8.2-23.5,14.4-37.1,18.3L740.3,491.1z"/>
		</g>
	</g>
	<path class="st3" d="M1652,934.9c1.3-10.8,10.7-18.2,21.5-16.9c10.8,1.3,18.2,10.7,16.9,21.5s-11,18.2-21.5,16.9
		C1658.4,955.1,1650.8,945.4,1652,934.9z M1686.1,888.2L1668,886l9.5-127.9l29.8,3.6L1686.1,888.2z"/>
	
		<linearGradient id="SVGID_00000102535373435098247040000015408161252289577617_" gradientUnits="userSpaceOnUse" x1="163.8022" y1="328.9102" x2="543.8779" y2="328.9102">
		<stop  offset="0" style="stop-color:#230032"/>
		<stop  offset="0.9053" style="stop-color:#230032;stop-opacity:0"/>
	</linearGradient>
	<path style="fill:url(#SVGID_00000102535373435098247040000015408161252289577617_);" d="M415.4,212.5l0.8-21.9L328,206.9
		c-24.4,22.4-58,34.3-93.4,30l-41.6-5.1l-29.2,5.4l42.4,230.1L543.9,405l-34.8-189L415.4,212.5z"/>
	<path class="st3" d="M341.3,412.1l4.1,22.5c-3.2,2-11.1,8.7-21.1,10.5c-22.2,4.1-42.6-7.1-47.1-31.2l-14.9-80.7l-23.6,4.3
		l-3.8-20.6l23.6-4.3l-7.2-38.9l23.9-4.4l7.2,38.9l38.1-7l3.8,20.6l-38.1,7l14.7,79.9c2.3,12.3,11.1,15.1,21.6,13.2
		C331.4,420.3,339.4,414.1,341.3,412.1z"/>
	<path class="st3" d="M346.2,368c-7.2-39.1,15.4-76,53.4-83l0.3,0c38.1-7,72.3,19.4,79.5,58.5c7.2,39.1-15.4,76-53.4,83l-0.3,0
		C387.6,433.5,353.4,407.1,346.2,368z M421.6,402.6c24.9-4.6,38.8-28.8,34-54.8c-4.6-25.2-26.3-43.6-51.3-39.1l-0.3,0
		c-24.9,4.9-38.8,28.8-34,54.8c4.8,26,26.3,43.6,51.3,39.1L421.6,402.6z"/>
	<path class="st3" d="M470.5,114.5c2-55,48.6-98,103.7-96c42.2,1.6,73.6,31.1,81.8,67.7l-25.9-1c-3.7-11.6-11.5-22-21.5-29.7
		c-10.1-7.7-22.5-12.3-35.3-12.8c-41.7-1.5-76.7,31-78.2,72.7c-1.5,41.7,31,76.7,72.7,78.2c14.2,0.5,26.8-2.8,37.5-10.1
		c10.3-6.7,18.6-16.8,23.7-29.4l25.3,0.9c-11.8,38.3-45.2,64.3-87.4,62.8C511.7,215.8,468.5,169.5,470.5,114.5z"/>
	<path class="st3" d="M673.2,149.8c1.5-39.8,31.5-70.8,70.2-69.4l0.3,0c38.7,1.4,66.4,34.6,64.9,74.4c-1.5,39.8-31.5,70.8-70.2,69.4
		l-0.3,0C699.4,222.8,671.7,189.6,673.2,149.8z M739.3,200c25.3,0.9,44.1-19.6,45.1-46.1c0.9-25.6-16.2-48.3-41.5-49.3l-0.3,0
		c-25.3-0.7-44.1,19.6-45.1,46.1c-1,26.4,16.2,48.3,41.5,49.3L739.3,200z"/>
	<path class="st3" d="M952.9,146.2l-3.1,86.2l-24.2-0.9l3.1-85.6c0.7-19.1-14.2-35.4-33.3-36.1c-19.3-0.7-35.5,14.8-36.2,33.6
		l-3.1,85.6l-24.2-0.9l5.2-142.6l24.2,0.9l-0.8,21.8c11.5-14.6,28.7-22.4,46.1-21.8C933.3,87.4,954.2,112.2,952.9,146.2z"/>
	<path class="st3" d="M1112.6,231.2c-1.5,41.7-31.3,71.1-71.6,69.6c-40.3-1.5-65.1-30.5-66.1-56.7l25.3,0.9
		c1.1,15.3,17.4,31.5,42.2,32.4c25.9,1,44.9-18.8,46-47.7l0.7-17.7c-11.5,15.1-28.4,24-48.9,23.3c-33-1.2-59.6-33.8-58.1-74.2
		s30.4-70.9,63.4-69.7c20.4,0.8,36.7,11.2,47,27.1l0.9-23.7l24.2,0.9L1112.6,231.2z M1090.8,165.2c1-27-13.5-48.5-39.1-49.5
		c-26.4-1-44.4,19.4-45.4,46.3c-1,27.2,15.4,48.8,41.8,49.8C1073.7,212.9,1089.8,192.2,1090.8,165.2z"/>
	<path class="st3" d="M1227.7,99.1l-0.9,23.7c-1.9-0.6-10-1.2-13-1.3c-19.6-0.7-37,10.9-38,38.4l-2.9,80.6l-24.2-0.9l5.2-142.4
		l24.2,0.9l-0.7,19.9c8.6-12.5,21-20.8,36.8-20.2C1220.1,98,1225,98.8,1227.7,99.1z"/>
	<path class="st3" d="M1365.5,105.1l-0.8,20.4l-1.8,47.4c-0.8,21.8-1.1,30.5-1.9,52.3l0,0.5l-0.7,21.6l-24.2-0.9
		c0.4-13.2,0.7-20.8,0.9-25.7c-10.9,15.4-27.9,24.6-50,23.8l-0.3,0c-33-1.2-58.2-33.3-56.7-74.1c1.5-40.3,29.1-70.9,62-69.7l0.3,0
		c22.1,0.8,38.3,11.2,48.1,27.4l0.9-24L1365.5,105.1z M1338.6,174.4c1-27-14.8-48.8-39.1-49.7l-0.3,0c-27-1-44.1,18.8-45.1,46.6
		c-1,28.3,14.8,48.8,41.5,49.8l0.3,0C1320.2,222,1337.6,201.4,1338.6,174.4z"/>
	<path class="st3" d="M1470,221.8l-0.8,22.9c-3.6,1.2-12.8,6.1-22.9,5.7c-22.6-0.8-40-16.2-39.1-40.7l3-82l-24-0.9l0.8-21l24,0.9
		l1.5-39.5l24.2,0.9l-1.5,39.5l38.7,1.4l-0.8,21l-38.7-1.4l-3,81.2c-0.5,12.5,7.5,17.2,18.2,17.6
		C1458.6,227.7,1467.7,223.4,1470,221.8z"/>
	<path class="st3" d="M1546.9,170.7l-16.2-4.1c-12.2-3.2-18-8.3-17.6-18.1c0.4-10.1,10.5-17.1,24.6-16.5c7.1,0.3,12.7,2.9,16.7,6.9
		c4.7,4.5,7,10.6,6.8,16.3l15.4,0.6c-5.9-11.7-9.7-24.2-11.4-36.9c-7.1-5.1-15.9-8.4-26.4-8.9c-28.9-1.3-48.9,16.5-49.7,38
		c-0.9,23.7,15.4,34.4,32.6,39.1l15.1,4.1c17.6,4.7,25.3,9.9,24.8,21.4c-0.4,11.2-10.6,19.8-27.4,19.2c-7.9-0.3-14.6-3.3-19.3-7.8
		c-5.5-4.8-8.6-11.8-8.3-18.6l-22.9-0.8c-0.8,21.2,15.7,48,49.7,49.3c31.6,1.2,51.4-16.9,52.2-40.6
		C1586.4,193.2,1573.9,177.7,1546.9,170.7z"/>
	<path class="st3" d="M1678.2,220.8c-1.5,0-3.1-0.2-4.6-0.5c-11.5-2.5-18.8-13.9-16.3-25.4c2.5-11.7,13.7-18.9,25.4-16.3
		c11.7,2.5,18.9,13.7,16.3,25.4c-1.2,5.6-4.5,10.4-9.4,13.5C1686.1,219.7,1682.2,220.8,1678.2,220.8z M1677.9,182.1
		c-8,0-15,5.5-16.8,13.7l0,0c-2,9.4,3.9,18.6,13.3,20.6c4.5,1,9.2,0.2,13-2.3c3.9-2.5,6.6-6.4,7.6-11c2.1-9.5-3.8-18.6-13.3-20.6
		C1680.5,182.2,1679.2,182.1,1677.9,182.1z M1699,154.4l-21.6-4.7l22.3-130.4l33.4,7.2L1699,154.4z M1682,146.7l14.1,3.1l32-120.1
		l-25.2-5.5L1682,146.7z"/>
	<path class="st3" d="M1743.2,234.9c-1.5,0-3.1-0.2-4.6-0.5c-11.5-2.5-18.8-13.9-16.3-25.4c2.5-11.7,13.7-18.9,25.4-16.3
		c11.7,2.5,18.9,13.7,16.3,25.4c-1.2,5.6-4.5,10.4-9.4,13.5C1751.1,233.8,1747.2,234.9,1743.2,234.9z M1742.9,196.2
		c-8,0-15,5.5-16.8,13.7l0,0c-2,9.4,3.9,18.6,13.3,20.6c4.5,1,9.2,0.2,13-2.3c3.9-2.5,6.6-6.4,7.6-11c2.1-9.5-3.8-18.6-13.3-20.6
		C1745.5,196.3,1744.2,196.2,1742.9,196.2z M1764,168.5l-21.6-4.7l22.3-130.4l33.4,7.2L1764,168.5z M1747,160.8l14.1,3.1l32-120.1
		l-25.2-5.5L1747,160.8z"/>
	<path class="st3" d="M157.7,229c-1.5,0.1-3.1,0.1-4.7-0.1c-11.7-1.5-20-12.2-18.5-23.8c1.5-11.9,12-20,23.8-18.5
		c11.9,1.5,20,12,18.5,23.8c-0.7,5.7-3.6,10.8-8.1,14.3C165.5,227.1,161.7,228.6,157.7,229z M154,190.4c-8,0.7-14.5,6.8-15.5,15.1
		l0,0c-1.2,9.5,5.6,18.2,15.1,19.4c4.6,0.6,9.1-0.6,12.8-3.4c3.7-2.8,6-6.9,6.6-11.6c1.2-9.7-5.4-18.2-15.1-19.4
		C156.5,190.3,155.2,190.3,154,190.4z M172.5,161l-21.9-2.7l10.5-131.8l33.9,4.2L172.5,161z M154.9,154.8l14.3,1.8l21.2-122.4
		l-25.6-3.2L154.9,154.8z"/>
	<path class="st3" d="M223.7,237.2c-1.5,0.1-3.1,0.1-4.7-0.1c-11.7-1.5-20-12.2-18.5-23.8c1.5-11.9,12-20,23.8-18.5
		c11.9,1.5,20,12,18.5,23.8c-0.7,5.7-3.6,10.8-8.1,14.3C231.5,235.4,227.7,236.9,223.7,237.2z M220,198.7c-8,0.7-14.5,6.8-15.5,15.1
		l0,0c-1.2,9.5,5.6,18.2,15.1,19.4c4.6,0.6,9.1-0.6,12.8-3.4c3.7-2.8,6-6.9,6.6-11.6c1.2-9.7-5.4-18.2-15.1-19.4
		C222.5,198.6,221.2,198.5,220,198.7z M238.5,169.2l-21.9-2.7l10.5-131.8l33.9,4.2L238.5,169.2z M220.9,163l14.3,1.8l21.2-122.4
		l-25.6-3.2L220.9,163z"/>
	<g>
		<polygon class="st3" points="1773.3,769.5 1743.6,766 1734.1,893.9 1752.2,896 		"/>
		<path class="st3" d="M1725.1,960h24.5c3.7-3,6.3-7.4,6.9-12.7c1.3-10.8-6.1-20.2-16.9-21.5c-10.8-1.3-20.2,6.1-21.5,16.9
			C1717.3,949.5,1720.1,955.9,1725.1,960z"/>
	</g>
	<rect x="1836" y="549" class="st3" width="84" height="4"/>
	<rect x="1842" y="586" class="st3" width="78" height="4"/>
	<rect x="1836" y="623" class="st3" width="84" height="4"/>
	<g>
		<path class="st3" d="M1920,297.9v-4.3c-9.1-3.5-18.8-5.9-28.8-7.1L1652.5,258l0,0.3l-45.1-1.7l283.4,33.8
			C1901,291.7,1910.8,294.2,1920,297.9z"/>
		<path class="st3" d="M1920,511.3c-17.4,7-36.6,9.9-56.5,7.5l-473-56.5c-30.5-3.6-57.7-18.9-76.7-43.1
			c-19-24.1-27.4-54.2-23.8-84.7c4.6-38.5,27.8-70.2,59.5-87.5l-7.5-0.3c-29.9,18.4-51.5,49.8-55.9,87.3c-3.8,31.6,5,62.7,24.6,87.7
			c19.6,25,47.8,40.8,79.4,44.6l473,56.5c4.8,0.6,9.5,0.8,14.2,0.8c15,0,29.4-2.8,42.8-8V511.3z"/>
	</g>
	<path class="st3" d="M1803.4,7.1L1770.8,0h-18.9l50.6,11c62,13.4,101.4,74.8,88,136.7c-6.5,30-24.3,55.7-50.2,72.3
		s-56.6,22.2-86.6,15.7l-95.1-20.6c-62-13.4-101.4-74.8-88-136.7c7.7-35.3,30.8-63.2,60.8-78.3h-8.5c-1.5,0.9-2.9,1.7-4.3,2.6
		c-26.7,17.2-45.2,43.8-51.9,74.8c-6.7,31.1-1,62.9,16.2,89.6s43.8,45.2,74.8,51.9l95.1,20.6c8.5,1.8,16.9,2.7,25.3,2.7
		c54.8,0,104.2-38.1,116.2-93.8C1908.3,84.5,1867.5,21,1803.4,7.1z"/>
	<path class="st3" d="M263.3,4.9L224.1,0h-32.2l71,8.9c62.9,7.9,107.7,65.4,99.8,128.4c-3.8,30.5-19.3,57.6-43.5,76.5
		c-24.2,18.9-54.4,27.1-84.9,23.3L137.7,225C74.8,217.1,30,159.5,37.9,96.6C43.9,49.1,78.1,12,121.7,0h-12.9
		C98.2,4.1,88.2,9.8,79,17c-25.1,19.5-41.1,47.6-45,79.2c-3.9,31.5,4.6,62.7,24.1,87.8s47.6,41.1,79.2,45l96.6,12.1
		c8.6,1.1,17.1,1.2,25.4,0.5c54.5-4.9,100.4-47.3,107.4-103.8C374.8,72.6,328.4,13,263.3,4.9z"/>
	<g>
		<path class="st3" d="M0,414.9c15.9-5.3,32.8-7,49.9-5l149,17.8l-0.8-4.1L50.4,405.9c-17.5-2.1-34.6-0.2-50.4,4.8V414.9z"/>
		<path class="st3" d="M22.7,638.2c-7.9-0.9-15.4-2.7-22.7-5.1v4.2c7.1,2.3,14.5,3.9,22.2,4.8l469.4,56l18-1.9L22.7,638.2z"/>
	</g>
	<polygon class="st3" points="0,346 183.9,346 183.1,342 0,342 	"/>
	<polygon class="st3" points="0,309 177,309 176.3,305 0,305 	"/>
	<polygon class="st3" points="0,272 170.2,272 169.5,268 0,268 	"/>
	<polygon class="st3" points="202.7,960 223.6,855.7 267.8,956.6 291.6,954.2 324.4,807.9 300,810.4 275.9,917.9 231.4,817.6 
		207.9,820 185.8,927 140.1,827.1 115.7,829.7 175.4,960 	"/>
</g>
</svg>
